<svg width="250" height="250" viewBox="0 0 250 250" fill="none" xmlns="http://www.w3.org/2000/svg">
<g clip-path="url(#clip0_83_234)">
<rect width="250" height="250" rx="125" fill="white"/>
<path d="M252.5 -2.5H-2.5V252.5H252.5V-2.5Z" fill="white" stroke="#231F20" stroke-miterlimit="10"/>
<path d="M184.985 85.5679C184.093 83.7801 183.032 82.0814 181.878 80.4906C181.863 80.472 181.856 80.4571 181.845 80.4422C176.578 72.6924 171.248 68.6781 167.698 66.6746C167.694 66.6709 167.687 66.6672 167.68 66.6635C165.969 65.5856 161.373 63.7308 158.52 62.6269C158.491 62.612 158.461 62.5971 158.428 62.586H158.424C156.415 61.7943 154.355 60.616 154.104 60.471C154.086 60.4599 154.078 60.4562 154.078 60.4562C153.655 60.1774 153.334 59.9507 153.179 59.8429C153.109 59.7908 153.072 59.7648 153.072 59.7648C152.247 59.1181 151.539 58.4825 150.942 57.9026C150.931 57.8915 150.92 57.8803 150.905 57.8692C149.099 56.308 146.36 52.9442 144.945 51.1526C144.941 51.1452 144.934 51.134 144.926 51.1266C144.731 50.8515 144.506 50.5542 144.259 50.2345C136.924 40.8381 130.422 33.8242 127.204 30.4863C127.112 30.386 127.02 30.2931 126.931 30.2001C126.408 29.65 125.892 29.1222 125.383 28.6242C123.496 26.7545 121.727 25.2046 120.12 23.9259C120.109 23.9185 120.098 23.9111 120.086 23.8999H120.083C116.762 21.0118 112.748 18.4285 111.325 17.5402L111.295 17.5216L110.787 17.228L110.352 16.9752L110.337 16.9678C110.337 16.9678 109.497 27.8622 111.225 39.9646C111.251 40.2136 111.277 40.6225 111.24 40.8827C111.236 40.9198 111.233 40.9496 111.225 40.9793C110.687 43.689 108.022 43.2355 106.655 42.8118C106.644 42.8081 106.629 42.8006 106.611 42.7969C106.581 42.7895 106.548 42.7783 106.515 42.7672C106.072 42.6111 105.394 42.2059 105.221 42.1018C105.195 42.0833 105.18 42.0758 105.18 42.0758L99.9058 38.6525L96.6179 36.519L86.8206 30.3377L88.306 33.2257L94.3326 45.4731L94.3842 45.5772C94.4063 45.6218 94.4395 45.685 94.4727 45.7593L94.6275 46.0753C94.6422 46.105 94.657 46.131 94.6717 46.1608C94.7491 46.3169 94.8376 46.4953 94.9334 46.6886C95.2541 47.3427 95.6522 48.1753 96.0134 48.9522V48.9596C96.0134 48.9596 96.0281 48.9894 96.0355 49.0042C96.0466 49.0265 96.0576 49.0563 96.0761 49.0934C96.0871 49.1194 96.0982 49.1417 96.1092 49.1678C96.2788 49.5766 96.6769 50.5319 97.1487 51.8291C97.1487 51.8477 97.1597 51.8663 97.1671 51.8849C98.295 55.022 99.8136 60.0956 99.5703 64.1843C99.5703 64.1843 99.5667 64.2363 99.563 64.2958C99.563 64.3144 99.5593 64.3367 99.5593 64.359C99.5593 64.3738 99.5556 64.3924 99.5556 64.4147C99.5519 64.4593 99.5482 64.5002 99.5445 64.5448C99.5409 64.5671 99.5409 64.5931 99.5372 64.6192C99.5187 64.8162 99.4893 65.0689 99.4413 65.3737C99.4303 65.4518 99.4192 65.5335 99.4045 65.6116C99.1317 67.2396 98.413 70.0087 96.5405 72.6143L96.5221 72.6403C96.3156 72.9563 96.0908 73.2834 95.8475 73.6179C95.8254 73.6514 95.7996 73.6848 95.7775 73.7145C95.49 74.1085 95.2025 74.5025 94.9187 74.8817C94.9187 74.8817 94.5243 75.4243 93.964 76.19L93.3816 76.9892C92.5191 78.1823 91.4944 79.6171 90.8752 80.5426C90.8641 80.5612 90.853 80.576 90.8383 80.5946C90.7756 80.6987 90.7093 80.7916 90.654 80.8808C90.6356 80.9106 90.6171 80.9366 90.5987 80.9626C90.584 80.9886 90.5655 81.0109 90.5508 81.0332C89.5851 82.52 88.4461 84.3265 87.5099 85.9619C87.5099 85.9619 87.5062 85.9619 87.5025 85.9731C87.5025 85.9731 87.5025 85.9805 87.4877 85.9954C87.4841 86.0028 87.4804 86.0102 87.473 86.0177C87.3845 86.1478 87.1118 86.5864 86.8206 87.2071C86.8132 87.2145 86.8095 87.2257 86.8058 87.2331C86.6732 87.5193 86.5368 87.839 86.4151 88.1921C86.3967 88.2478 86.3783 88.3073 86.3598 88.3668C86.2382 88.7794 86.1166 89.2589 86.0134 89.809C86.0097 89.8276 86.0097 89.8424 86.006 89.861C85.9912 89.9465 85.9765 90.032 85.9581 90.1175C85.9581 90.1249 85.9581 90.1323 85.9581 90.1361C85.6964 91.7046 85.5637 93.7898 85.7517 96.5218C85.7627 96.6593 85.7738 96.7968 85.7848 96.9381C86.1866 101.818 86.7026 108.279 86.8353 110.672C86.9496 112.724 86.7727 114.181 86.5699 115.118H86.5663C86.5663 115.118 86.2714 116.225 85.8622 116.935C85.8549 116.946 85.8512 116.954 85.8438 116.965C85.8328 116.98 85.8254 116.998 85.818 117.013C84.233 119.682 77.4545 131.168 75.9838 134.453C75.3093 135.959 75.0918 136.955 75.0734 137.609V137.654C75.0845 137.836 75.2061 138.535 76.393 139.218C76.4004 139.222 76.4114 139.23 76.4188 139.233C77.9042 139.98 80.7166 141.698 82.1247 144.497C83.846 147.912 86.8869 149.674 88.4608 150.183H88.4645L88.4719 150.187H88.4866C88.4866 150.187 88.5124 150.198 88.5272 150.202C88.6083 150.232 88.6857 150.254 88.7594 150.273C88.7668 150.273 88.7705 150.276 88.7778 150.276C89.4118 150.466 90.8788 150.923 91.9699 151.399C92.0215 151.421 92.0731 151.444 92.121 151.466C92.2684 151.533 92.4048 151.596 92.5302 151.663H92.5375C93.1678 151.975 93.7834 152.306 94.3916 152.655C97.3625 154.365 105.354 158.982 107.285 160.249C108.527 161.063 110.109 161.193 111.34 161.13C112.527 161.067 113.651 160.58 114.51 159.751C115.32 158.963 116.43 157.818 117.462 156.499C117.466 156.495 117.469 156.491 117.469 156.487C118.608 155.146 119.482 154.759 119.769 154.662C119.836 154.64 119.873 154.633 119.873 154.633C120.308 154.517 120.765 154.462 121.222 154.447H121.225C121.347 154.436 124.167 154.22 127.307 155.856C127.315 155.863 127.322 155.867 127.329 155.867C127.952 156.164 128.487 156.506 128.951 156.885C128.959 156.893 128.966 156.896 128.973 156.904C131.189 158.718 131.705 161.353 131.609 163.665C131.535 165.52 131.03 167.322 130.193 168.965C130.193 168.965 130.193 168.973 130.19 168.976C130.182 168.991 130.175 169.006 130.164 169.021C130.079 169.17 129.832 169.597 129.46 170.248C129.589 170.047 129.711 169.846 129.828 169.642L123.227 181.863C123.227 181.863 123.223 181.867 123.22 181.874C122.873 182.413 111.83 199.768 108.361 238.944C108.354 239.03 108.347 239.115 108.339 239.201C108.313 239.468 108.291 239.732 108.269 240C107.289 199.95 122.785 177.622 127.263 169.738C128.87 166.813 129.206 164.486 129.257 163.308C129.261 163.252 129.261 163.197 129.261 163.148C129.272 162.702 129.242 162.461 129.242 162.461V162.449C129.231 162.256 129.217 162.085 129.202 161.944C129.202 161.925 129.198 161.907 129.194 161.884C129.172 161.684 129.132 161.502 129.102 161.383C129.088 161.316 129.073 161.267 129.065 161.245C128.877 160.621 128.59 160.249 128.505 160.156C128.502 160.149 128.494 160.141 128.49 160.137C128.49 160.13 128.483 160.126 128.483 160.126C127.208 158.383 124.569 157.554 123.389 157.257C123.33 157.242 123.271 157.231 123.22 157.216C123.127 157.194 123.054 157.179 122.987 157.164C122.939 157.149 122.891 157.142 122.847 157.134C122.814 157.13 122.799 157.127 122.799 157.127C121.026 156.829 119.95 157.651 119.397 158.301L119.364 158.338L116.559 161.535L116.552 161.542C116.5 161.598 116.113 162.003 115.778 162.26C115.726 162.297 115.674 162.334 115.626 162.364C114.701 162.97 113.584 163.483 112.291 163.702H112.28C111.904 163.765 111.513 163.802 111.104 163.81H111.056C110.809 163.81 110.558 163.806 110.3 163.788L109.559 163.702C108.892 163.594 108.196 163.408 107.462 163.126L107.436 163.115H107.429L106.408 162.654L106.364 162.635C106.297 162.606 106.231 162.572 106.165 162.539C106.017 162.461 105.87 162.383 105.722 162.297C105.461 162.148 105.195 161.989 104.926 161.814C104.421 161.487 103.92 161.167 103.426 160.855L102.733 160.424C101.752 159.814 100.798 159.238 99.8726 158.695C99.8357 158.677 99.7989 158.654 99.762 158.632L99.4413 158.443L99.0691 158.227C98.1439 157.688 97.2519 157.183 96.4115 156.722C96.3857 156.707 96.3636 156.692 96.3414 156.681L96.2198 156.618L95.9212 156.454L95.4752 156.209L95.4052 156.168C95.1619 156.038 94.926 155.908 94.6938 155.785C94.2183 155.528 93.7649 155.291 93.3337 155.064L92.9725 154.874C92.2463 154.499 91.5865 154.164 91.0115 153.878C90.7425 153.744 90.4734 153.618 90.2043 153.495C89.1133 152.993 87.9964 152.559 86.8611 152.161C82.3421 150.574 81.0004 147.652 81.0004 147.652C79.6809 144.307 77.473 142.623 76.0355 141.846C75.9912 141.82 75.9433 141.794 75.8917 141.768C75.8254 141.731 75.759 141.698 75.6963 141.668C75.6927 141.664 75.6853 141.664 75.6816 141.66C75.6226 141.634 75.5673 141.605 75.512 141.579C75.1656 141.408 74.8707 141.252 74.6127 141.11C74.5426 141.073 74.4763 141.036 74.4136 140.995C72.895 140.066 72.5817 138.605 72.5117 138.07C72.5117 138.044 72.5117 138.022 72.5117 138.003C72.4674 137.282 72.5633 136.732 72.5633 136.732C72.5633 133.937 82.8287 117.363 83.5843 115.776C84.3399 114.188 84.2773 112.159 84.2773 112.159C84.2773 112.159 83.4258 101.726 83.0535 95.0127C83.0535 94.9644 83.0498 94.9123 83.0462 94.8603C83.0314 94.6447 83.0204 94.4291 83.013 94.221C82.8508 89.69 84.0487 86.8354 84.5537 85.8467C84.6311 85.6943 84.6938 85.5865 84.727 85.5233C84.7343 85.5122 84.7417 85.501 84.7454 85.4936C84.7528 85.4787 84.7601 85.4713 84.7638 85.4638C84.7675 85.4601 84.7712 85.4564 84.7712 85.4564C85.4605 84.2224 86.2861 82.8806 87.1597 81.5313C87.2666 81.364 87.3772 81.1968 87.4877 81.0332C87.7163 80.6801 87.9522 80.3307 88.1844 79.985C88.6451 79.2974 89.1059 78.6246 89.5519 77.9742C89.5998 77.911 89.644 77.8441 89.692 77.7772L89.8283 77.5839L89.9426 77.4241C90.7425 76.283 91.5091 75.2311 92.1579 74.3501C92.191 74.3018 92.2279 74.2572 92.2611 74.2089L92.7624 73.5398C92.9393 73.302 93.1052 73.0864 93.2563 72.8894C93.6065 72.4099 93.9198 71.949 94.1962 71.5067C94.2036 71.503 94.2073 71.4955 94.211 71.4881C94.2331 71.4546 94.2552 71.4212 94.2736 71.3877C94.8449 70.5328 95.4236 69.4103 95.7849 68.6632C95.7922 68.652 95.7959 68.6446 95.7996 68.6335C95.936 68.3881 96.0539 68.1391 96.1571 67.8789C96.1645 67.8603 96.1682 67.8529 96.1682 67.8529C98.6194 61.8686 94.7344 52.5353 94.4505 51.8663C94.4432 51.8403 94.4358 51.8291 94.4358 51.8291C94.0119 50.7289 93.5401 49.625 93.0536 48.6028C93.0388 48.5731 92.9835 48.4504 92.8877 48.2534C92.0362 46.447 88.2249 38.3551 87.8342 37.5263C87.8121 37.4779 87.8011 37.4556 87.8011 37.4556C85.3683 31.962 82.9577 26.3085 82.9577 26.3085C86.4225 27.0705 99.5187 35.2626 104.178 38.6265C106.434 40.2582 107.569 40.6671 108.137 40.6522H108.155C108.181 40.6522 108.207 40.6522 108.229 40.6448H108.236C108.424 40.5928 108.428 40.3214 108.428 40.3214C108.428 40.0352 108.376 39.6338 108.302 39.2286C107.672 33.9468 107.543 28.8212 107.624 24.5132V24.4091C107.587 18.3877 108.391 12.8568 108.439 12.5223C108.442 12.5111 108.442 12.5074 108.442 12.5074V12.5C112.221 14.0946 116.109 16.8749 116.802 17.3804C116.85 17.4138 116.88 17.4398 116.898 17.451L116.913 17.4621C129.677 26.4943 143.293 44.0755 148.137 50.6508C154.145 58.8021 155.778 58.5791 167.495 63.8126C179.032 68.968 184.823 85.0661 185 85.5679H184.985Z" fill="black"/>
<path d="M92.5 74.6476L92.0053 75.305C91.9725 75.3525 91.9362 75.3963 91.9034 75.4438L87.4764 69.7608C85.5957 67.5292 83.3039 64.8886 80.9467 62.3722C81.827 66.4189 82.8238 69.7243 83.7805 72.3612C87.3636 75.8017 89.7172 78.4642 89.7172 78.4642L89.6044 78.6213L89.4698 78.8112C89.4225 78.8769 89.3789 78.9427 89.3316 79.0048C87.5746 77.0179 85.8721 75.21 84.2315 73.5628C86.1923 78.6322 87.8911 80.8638 87.982 80.977C87.7528 81.3203 87.52 81.6636 87.2945 82.0106C87.1853 82.1713 87.0762 82.3356 86.9707 82.5C71.6524 70.8638 66.8398 75.4145 65.4538 78.0405C70.121 68.1282 86.9016 81.6928 87.2872 82.0033C85.4975 79.6914 83.7441 74.9178 82.8238 72.1786C82.7728 72.1238 82.7183 72.0727 82.6673 72.0252C82.5 71.8645 82.3363 71.7038 82.1726 71.5504C71.0413 60.9368 63.2785 58.0807 62.5 57.8104C69.0806 59.6658 76.6761 65.7579 82.1726 70.8455C82.2526 70.9186 82.329 70.9916 82.4091 71.0683C82.4345 71.0902 82.46 71.1121 82.4855 71.1377C82.329 70.6446 82.2272 70.3086 82.1872 70.1808C82.1799 70.1443 82.1726 70.126 82.1726 70.126C81.4887 67.3649 80.9431 64.5088 80.5175 61.9156C76.8616 58.0442 73.0966 54.5343 70.4993 53.3218C70.7721 53.4131 73.8641 54.5453 80.3538 60.9113C79.6553 56.4847 79.3207 53.0223 79.2734 52.5C79.6808 55.7286 80.1719 58.6468 80.7103 61.2655C83.8496 64.3773 87.7601 68.6907 92.5 74.6476Z" fill="black"/>
<path d="M100 157.952C99.9969 158.326 99.8743 159.038 99.7926 159.452C99.7832 159.509 99.7738 159.562 99.7643 159.608C99.7549 159.651 99.7486 159.694 99.7392 159.736C99.7361 159.744 99.7361 159.754 99.7329 159.761C99.557 160.58 99.2176 161.599 98.5704 162.685H98.5672C98.5672 162.685 98.561 162.699 98.5578 162.703H98.5547C98.3819 162.999 98.1871 163.291 97.9671 163.59C97.6058 164.152 97.1659 164.879 96.9114 165.445C96.902 165.459 96.8957 165.474 96.8925 165.488C96.8548 165.566 96.8266 165.641 96.8014 165.712C96.7951 165.723 96.792 165.73 96.7889 165.741C96.7669 165.801 96.748 165.851 96.7292 165.894C96.6632 166.072 96.594 166.264 96.5281 166.467C96.5249 166.474 96.5218 166.485 96.5186 166.492C96.0442 167.817 95.5666 169.619 95.3938 171.838C95.3938 171.838 95.3938 171.848 95.3907 171.873C95.3907 171.898 95.3907 171.923 95.3844 171.948C95.3844 171.959 95.3812 171.973 95.3812 171.987C95.3781 172.016 95.3781 172.041 95.3749 172.069C95.3718 172.09 95.3718 172.112 95.3718 172.137C95.3341 172.553 95.2744 173.323 95.2461 173.917L94.5706 179.875L94.5297 180.228C94.5172 180.356 94.5077 180.491 94.5015 180.634V180.641C94.4858 180.862 94.1213 185.787 93.8165 187.86C93.8039 187.942 93.7914 188.027 93.7788 188.109C93.7757 188.12 93.7757 188.127 93.7757 188.137C93.4646 190.021 93.0499 191.702 92.5063 192.5C92.5031 192.5 92.5 192.5 92.5 192.5C93.5212 190.096 93.8542 184.537 93.961 181.439V181.425L94.1401 179.224L94.734 173.768V173.754C94.9068 170.449 95.4472 165.905 97.0496 163.714C99.7329 160.046 99.315 157.5 99.315 157.5L99.6324 157.707L99.9057 157.888C99.9372 157.91 99.9686 157.931 100 157.949V157.952Z" fill="black"/>
<path d="M107.5 163.081V170.805C107.5 171.166 107.446 172.914 106.475 175.195C106.443 175.269 106.41 175.342 106.378 175.416C105.191 178.047 103.289 182.349 101.853 186.003C101.853 186.003 101.845 186.025 101.827 186.065C101.568 186.728 101.322 187.368 101.102 187.971C101.098 187.979 101.098 187.982 101.095 187.99C101.091 187.993 101.091 188.001 101.088 188.008C100.871 188.52 98.5833 193.999 98.19 195.743C98.19 195.747 98.19 195.75 98.1863 195.754C98.1755 195.776 98.1575 195.828 98.143 195.912C98.143 195.92 98.1394 195.927 98.1394 195.934C98.1394 195.934 98.1394 195.942 98.1358 195.953C98.0528 196.339 96.7934 202.105 96.162 204.225C96.115 204.376 96.0753 204.508 96.0357 204.619C95.6387 205.837 95.267 206.849 95 207.5C95.7722 205.145 96.8873 199.011 97.3059 196.652C97.3852 196.188 97.4899 195.732 97.6162 195.283C97.6162 195.272 97.6234 195.261 97.627 195.246C97.6703 195.095 97.7172 194.941 97.7678 194.79C97.876 194.459 98.0095 194.054 98.1539 193.598C98.1575 193.594 98.1575 193.59 98.1575 193.587C98.9514 191.269 100.438 187.166 101.578 184.049C101.6 183.986 101.625 183.92 101.654 183.85C101.954 183.059 102.473 181.756 103.007 180.432C103.018 180.406 103.029 180.38 103.04 180.351C103.105 180.196 103.166 180.042 103.227 179.887C103.235 179.861 103.246 179.839 103.256 179.817C103.296 179.718 103.339 179.615 103.379 179.515C103.433 179.375 103.495 179.236 103.552 179.092C104.205 177.51 105.057 175.497 105.602 174.216C105.876 173.569 106.064 172.943 106.194 172.373C106.197 172.343 106.205 172.307 106.215 172.266C106.251 172.123 106.284 171.953 106.309 171.777C106.309 171.766 106.313 171.758 106.313 171.747C106.425 170.93 106.425 169.918 106.425 169.918V166.754C106.378 164.288 106.266 162.894 106.23 162.5C106.295 162.533 106.36 162.566 106.425 162.596L106.468 162.614L107.468 163.067H107.475L107.5 163.081Z" fill="black"/>
<path d="M112.49 168.188C112.49 168.188 112.493 168.173 112.49 168.165C112.358 165.342 111.432 163.156 111.189 162.626C111.149 162.542 111.129 162.5 111.129 162.5H111.119C110.775 162.565 110.418 162.603 110.044 162.611H110C110 162.611 110.58 162.939 111.139 164.423C111.139 164.423 111.14 164.425 111.142 164.43C111.846 166.319 112.524 170.08 111.968 177.416C111.964 177.443 111.964 177.473 111.961 177.5C112.16 176.077 112.49 173.121 112.5 169.348V169.184C112.5 168.856 112.497 168.524 112.49 168.188ZM111.833 166.254H111.836C111.836 166.254 111.836 166.258 111.84 166.277C111.84 166.269 111.836 166.261 111.833 166.254Z" fill="black"/>
<path d="M90 152.874C90 152.874 89.1014 153.756 88.7316 155.049C88.7316 155.049 88.7131 155.114 88.6872 155.219C88.6872 155.219 88.6761 155.249 88.6613 155.303C88.543 155.67 88.066 157.122 87.8034 157.721C87.7886 157.743 87.7812 157.765 87.7701 157.786C87.7664 157.794 87.7627 157.801 87.7627 157.808C86.1763 161.239 82.9184 167.147 82.5338 167.484C82.0346 167.924 87.2117 158.999 87.9994 155.659C88.4062 153.938 88.8536 153.001 89.1901 152.5C89.4601 152.62 89.73 152.743 90 152.874Z" fill="black"/>
<path d="M102.153 166.545C102.153 166.545 102.153 166.554 102.15 166.558C102.104 166.734 102.005 167.022 101.783 167.386L101.341 167.962L101.331 167.974C101.242 168.078 101.144 168.202 101.045 168.35C100.801 168.714 100.543 169.222 100.321 169.926C100.268 170.086 100.219 170.254 100.173 170.434V170.45L99.6678 172.179L99.6501 172.235C99.23 173.559 98.5804 175.496 98.1284 176.376C98.1002 176.428 98.072 176.48 98.0472 176.524C98.0296 176.552 98.0155 176.58 98.0049 176.608C97.8178 176.952 97.6448 177.252 97.5 177.5C98.6686 175.299 99.3783 171.395 99.3783 171.395C99.3783 171.395 99.7631 169.806 100.339 168.486C100.37 168.406 100.413 168.318 100.459 168.23C100.501 168.146 100.55 168.058 100.6 167.97C100.607 167.962 100.61 167.954 100.618 167.942C100.625 167.93 100.628 167.918 100.639 167.906C100.794 167.65 100.971 167.39 101.112 167.19L101.165 167.118C101.2 167.074 101.232 167.03 101.26 166.998C101.267 166.99 101.274 166.982 101.278 166.974C101.299 166.954 101.32 166.926 101.338 166.898H101.341L101.348 166.886H101.345C101.366 166.858 101.38 166.83 101.398 166.802C102.22 165.353 101.821 160 101.821 160L102.485 160.464C102.559 163.657 102.34 165.545 102.153 166.545Z" fill="black"/>
<path d="M102.5 167.5C104.524 164.86 104.12 160 104.12 160C104.415 160.168 104.705 160.321 104.992 160.46C105.158 165.37 102.649 167.386 102.5 167.5Z" fill="black"/>
<path d="M97.2856 156.72L96.964 156.559L96.4837 156.317L96.4082 156.276C96.1462 156.148 95.8921 156.02 95.642 155.899C95.1299 156.093 94.6574 156.324 94.2128 156.577C94.2128 155.928 94.2009 155.433 94.1771 155.187L93.788 155C93.788 155 93.8158 155.715 93.8356 156.808C90.8581 158.7 89.4368 161.858 88.7698 164.663C86.2925 167.355 84.8514 170.018 84.0455 171.906C84.0455 171.906 84.0415 171.917 84.0375 171.925C84.0256 171.95 84.0058 171.998 83.978 172.068C83.9621 172.104 83.9462 172.141 83.9343 172.178C83.9343 172.181 83.9343 172.185 83.9343 172.189C83.851 172.405 83.7318 172.746 83.6088 173.186C83.6088 173.186 83.6088 173.19 83.6048 173.197C83.585 173.293 83.442 173.978 83.3825 174.287C83.3745 174.334 83.3706 174.375 83.3666 174.4C83.3666 174.408 83.3666 174.411 83.3666 174.415L83.0927 176.52V176.535C82.6957 181.779 80.3017 186.862 80 187.5C80.2184 187.137 81.2744 185.329 82.2471 183.077C82.255 183.048 82.2709 183.015 82.2867 182.982C82.3781 182.765 82.4733 182.542 82.5607 182.318C83.3547 180.202 83.839 176.927 84.0177 175.548C84.0177 175.537 84.0217 175.526 84.0217 175.515C84.0336 175.332 84.0574 175.148 84.0892 174.965C84.0931 174.925 84.0971 174.903 84.0971 174.903C84.1447 174.609 84.2122 174.312 84.2956 174.012C84.2996 173.993 84.3075 173.971 84.3115 173.953C85.2047 170.528 87.7853 167.337 87.9481 167.143C87.952 167.135 87.956 167.132 87.956 167.132C88.1108 166.93 88.2657 166.739 88.4165 166.556C88.0989 168.819 88.218 170.509 88.218 170.509C88.3014 168.848 88.5078 167.385 88.8056 166.09C89.7266 165.016 90.477 164.293 90.6596 164.124L90.6993 164.088C91.6005 163.142 92.4541 162.327 92.6764 162.115C92.7121 162.078 92.732 162.06 92.732 162.06C92.732 162.06 92.7478 162.041 92.7796 162.008C92.9106 161.865 93.3156 161.436 93.8317 160.879C93.7562 163.695 93.5061 166.677 92.8352 167.678C92.8352 167.678 93.522 167.194 93.8595 164.26C93.9825 163.211 94.0699 161.88 94.1294 160.56C95.3959 159.192 97.1268 157.31 97.5 156.823L97.2936 156.72H97.2856ZM93.8476 159.459C92.8669 160.523 91.5529 161.887 89.7941 163.604C89.6591 163.736 89.5281 163.864 89.4011 163.996C90.5762 160.67 92.3826 158.807 93.8476 157.78C93.8515 158.301 93.8515 158.869 93.8476 159.459ZM94.1731 159.104C94.189 158.554 94.2009 158.026 94.2049 157.541C95.3959 156.786 96.2891 156.595 96.2891 156.595C96.0073 156.977 95.3879 157.773 94.1731 159.104Z" fill="black"/>
</g>
<defs>
<clipPath id="clip0_83_234">
<rect width="250" height="250" rx="125" fill="white"/>
</clipPath>
</defs>
</svg>
