<svg xmlns="http://www.w3.org/2000/svg" width="250" height="250" fill="none"><rect width="250" height="250" fill="#000" rx="125"/><path fill="#fff" d="M171 77.292c0 .968-.774 1.751-1.716 1.751h-19.19c-.28.934-.628 1.844-1.02 2.731l14.849 7.777c.841.438 1.178 1.498.752 2.362a1.708 1.708 0 0 1-2.3.772l-14.882-7.8a28.433 28.433 0 0 1-1.784 2.65c-3.824 5.046-9.309 8.675-15.612 10.046h-.011a26.37 26.37 0 0 1-5.596.6c-8.423 0-15.937-3.964-20.872-10.185a27.376 27.376 0 0 1-2.512-3.78L84.989 92.72c-.83.45-1.873.104-2.3-.76-.436-.853-.1-1.924.741-2.362l16.173-8.537a24.09 24.09 0 0 1-.998-2.961H80.716c-.942 0-1.716-.795-1.716-1.763 0-.968.774-1.751 1.716-1.751h17.148a27.403 27.403 0 0 1-.28-3.203l-14.928-6.81c-.863-.391-1.256-1.44-.875-2.315.382-.887 1.402-1.29 2.255-.899l13.683 6.233a28.61 28.61 0 0 1 .886-4.631c.55-2.212.84-4.528.84-6.913 0-7.892-3.218-15.012-8.388-20.047 7.492.057 14.254 3.26 19.088 8.387a3.287 3.287 0 0 0 2.378 1.014c.471 0 .908-.092 1.312-.265a26.136 26.136 0 0 1 10.655-2.258c3.959 0 7.705.876 11.092 2.466.011 0 .033.011.045.023.134.069.269.127.403.173.012.023.034.023.045.023.359.138.752.218 1.155.218.931 0 1.761-.391 2.367-1.002.09-.092.168-.173.247-.265 4.632-4.966 11.036-8.157 18.18-8.48-5.204 5.047-8.457 12.19-8.457 20.117 0 2.385.292 4.7.853 6.912 0 .035.011.07.022.104.538 2.04.864 4.16.953 6.337l16.409-6.141c.886-.334 1.873.138 2.187 1.048.067.196.101.392.101.6 0 .714-.427 1.382-1.122 1.647l-17.709 6.636c-.056.76-.157 1.51-.303 2.236h18.326c.942 0 1.716.794 1.716 1.762Z"/><path stroke="#fff" stroke-miterlimit="10" stroke-width=".333" d="M171 77.292c0 .968-.774 1.751-1.716 1.751h-19.19c-.28.934-.628 1.844-1.02 2.731l14.849 7.777c.841.438 1.178 1.498.752 2.362a1.708 1.708 0 0 1-2.3.772l-14.882-7.8a28.433 28.433 0 0 1-1.784 2.65c-3.824 5.046-9.309 8.675-15.612 10.046h-.011a26.37 26.37 0 0 1-5.596.6c-8.423 0-15.937-3.964-20.872-10.185a27.376 27.376 0 0 1-2.512-3.78L84.989 92.72c-.83.45-1.873.104-2.3-.76-.436-.853-.1-1.924.741-2.362l16.173-8.537a24.09 24.09 0 0 1-.998-2.961H80.716c-.942 0-1.716-.795-1.716-1.763 0-.968.774-1.751 1.716-1.751h17.148a27.403 27.403 0 0 1-.28-3.203l-14.928-6.81c-.863-.391-1.256-1.44-.875-2.315.382-.887 1.402-1.29 2.255-.899l13.683 6.233a28.61 28.61 0 0 1 .886-4.631c.55-2.212.84-4.528.84-6.913 0-7.892-3.218-15.012-8.388-20.047 7.492.057 14.254 3.26 19.088 8.387a3.287 3.287 0 0 0 2.378 1.014c.471 0 .908-.092 1.312-.265a26.136 26.136 0 0 1 10.655-2.258c3.959 0 7.705.876 11.092 2.466.011 0 .033.011.045.023.134.069.269.127.403.173.012.023.034.023.045.023.359.138.752.218 1.155.218.931 0 1.761-.391 2.367-1.002.09-.092.168-.173.247-.265 4.632-4.966 11.036-8.157 18.18-8.48-5.204 5.047-8.457 12.19-8.457 20.117 0 2.385.292 4.7.853 6.912 0 .035.011.07.022.104.538 2.04.864 4.16.953 6.337l16.409-6.141c.886-.334 1.873.138 2.187 1.048.067.196.101.392.101.6 0 .714-.427 1.382-1.122 1.647l-17.709 6.636c-.056.76-.157 1.51-.303 2.236h18.326c.942 0 1.716.794 1.716 1.762Z"/><path fill="#fff" d="M151.959 163.057c-.011.046-.034.103-.045.15-3.297 16.533-12.561 30.842-25.358 40.462-7.088 5.335-15.264 9.217-24.135 11.245a14.744 14.744 0 0 1-.404-3.399v-.103c.011-2.339 1.581-4.321 3.735-5.07a40.033 40.033 0 0 0 13.604-8.065c8.467-7.592 13.739-18.768 13.817-31.234v-1.394c0-.127 0-.253-.011-.369 0-.126-.011-.253-.022-.38 0-.034 0-.069-.012-.092-.078-.899-.291-1.463-.403-1.728-.068-.127-.101-.185-.101-.185-.494-.783-1.268-1.301-2.199-1.486 0 0-.044-.011-.134-.023h-.023c-.246-.034-.785-.069-1.525.081-.022 0-.034.011-.056 0a25.646 25.646 0 0 1-5.361.564c-14.883 0-26.917-12.373-26.917-27.651 0-2.961.46-5.829 1.301-8.502 3.488-11.107 13.638-19.149 25.616-19.149 8.905 0 16.812 4.447 21.702 11.303.056.069.134.172.224.299.292.403.752 1.06 1.29 1.947 0 0 .213.334.561.945 1.267 2.224 4.34 8.122 5.484 14.955 0 0 .011.057.023.149.022.093.033.173.044.265.034.219.079.519.124.888.549 3.986 1.873 16.245-.819 25.577Z"/><path stroke="#fff" stroke-miterlimit="10" stroke-width=".333" d="M151.959 163.057c-.011.046-.034.103-.045.15-3.297 16.533-12.561 30.842-25.358 40.462-7.088 5.335-15.264 9.217-24.135 11.245a14.744 14.744 0 0 1-.404-3.399v-.103c.011-2.339 1.581-4.321 3.735-5.07a40.033 40.033 0 0 0 13.604-8.065c8.467-7.592 13.739-18.768 13.817-31.234v-1.394c0-.127 0-.253-.011-.369 0-.126-.011-.253-.022-.38 0-.034 0-.069-.012-.092-.078-.899-.291-1.463-.403-1.728-.068-.127-.101-.185-.101-.185-.494-.783-1.268-1.301-2.199-1.486 0 0-.044-.011-.134-.023h-.023c-.246-.034-.785-.069-1.525.081-.022 0-.034.011-.056 0a25.646 25.646 0 0 1-5.361.564c-14.883 0-26.917-12.373-26.917-27.651 0-2.961.46-5.829 1.301-8.502 3.488-11.107 13.638-19.149 25.616-19.149 8.905 0 16.812 4.447 21.702 11.303.056.069.134.172.224.299.292.403.752 1.06 1.29 1.947 0 0 .213.334.561.945 1.267 2.224 4.34 8.122 5.484 14.955 0 0 .011.057.023.149.022.093.033.173.044.265.034.219.079.519.124.888.549 3.986 1.873 16.245-.819 25.577Z"/></svg>