<svg width="32" height="32" fill="none" xmlns="http://www.w3.org/2000/svg"><circle cx="16" cy="16" r="16" fill="#000"/><path d="m10.397 9.013.074-.068-.01-.009-.064.077Zm-.422-.354.064-.077-.002-.001-.062.078Zm-.912-.726.061-.08-.004-.003-.057.083Zm-.76-.473.05-.087-.008-.004-.041.091Zm-.497-.343a.1.1 0 1 0-.085.18l.085-.18Zm1.46.972.062-.078-.001-.001-.061.079Zm-.401-.291.056-.083-.004-.002-.052.085Zm-.646-.376-.042.09.001.001.041-.09Zm.235.123.052-.086-.003-.002-.05.088Zm2.81 2.26-.794-.86-.147.136.793.86.147-.135Zm-.803-.869-.422-.354-.129.153.422.355.129-.154Zm-.424-.355-.472-.38-.126.156.473.38.125-.156Zm-.472-.38-.237-.19-.125.156.236.19.126-.156Zm-.238-.191-.203-.156-.122.158.203.156.122-.158Zm-.207-.16-.199-.135-.112.165.198.135.113-.165Zm-.203-.137-.164-.102-.105.17.165.102.104-.17Zm-.164-.102-.165-.101-.105.17.165.102.105-.17Zm-.643-.35-.304-.144-.085.18.304.144.085-.18Zm.235.108-.085-.038-.082.182.085.038.082-.182Zm-.083-.037L8.11 7.26l-.085.18.152.073.085-.181Zm.326.178-.082-.05-.105.17.082.05.105-.17Zm-.085-.053-.15-.084-.098.174.15.085.098-.175ZM10.936 8.709l-.077.063.002.002.075-.065Zm-.556-.675.077-.064-.005-.005-.072.069Zm-.338-.355.072-.069-.003-.003-.07.072Zm-1.2-1.133a.1.1 0 0 0-.098.174l.098-.174Zm.542.5.07-.072-.011-.008-.06.08Zm-.22-.16-.06.08h.001l.06-.08Zm-.232-.175.061-.08-.012-.007-.049.087Zm2.721 2.675-.64-.743-.152.131.641.743.151-.131Zm-.64-.74-.556-.676-.155.127.557.675.155-.127Zm-.561-.681-.338-.355-.145.138.338.355.145-.138Zm-.34-.358-.44-.422-.138.144.439.422.138-.144Zm-.44-.422-.219-.21-.139.143.22.211.138-.144Zm-.23-.22-.219-.16-.118.162.22.16.118-.161Zm-.217-.159-.233-.175-.12.16.232.175.12-.16Zm-.244-.182-.14-.078-.097.174.14.078.097-.174Z" fill="#fff"/><path d="m12.929 20.945.067-.152.034-.076.017-.038.008-.036.009-.052v-.068l.004-.044.004-.028.004-.027.005-.027.017-.11V20.068" stroke="#fff" stroke-width=".2" stroke-linecap="round"/><path d="m10.43 9.975.055-.084-.003-.002-.051.086Zm-.303-.17.046-.088-.002-.001-.044.09Zm-.557-.27.044-.09H9.61l-.04.09Zm-.456-.185.032-.095-.008-.002-.024.097Zm-.455-.034v-.1h-.013l-.012.003.025.097Zm-.068.017-.024-.097-.008.002.032.095Zm-.05.017-.032-.095-.01.004-.01.005.051.086Zm-.085.05-.052-.086-.01.009.062.078Zm-.084.068-.063-.078-.012.01-.009.013.084.055Zm-.068.102-.083-.056-.003.004.086.052Zm-.288.286a.1.1 0 0 0 .171.103l-.171-.103Zm2.57.22.064-.079-.009-.005-.054.084Zm-.282-.177.052-.086-.005-.003-.047.089Zm-1.05-.502.04-.092-.009-.003-.032.095Zm-.207-.064.024-.097-.01-.002-.014.1Zm-.077-.008-.009.1h.01v-.1Zm.018 0 .014-.1h-.014v.1Zm-.11-.009.01-.1h-.01v.1Zm1.293.4-.557-.27-.088.18.557.27.088-.18Zm-1.344-.5h-.05v.2h.05v-.2Zm-.05 0h-.118v.2h.118v-.2Zm-.143.003-.067.017.048.194.068-.017-.049-.194Zm-.075.02-.05.016.063.19.05-.017-.063-.19Zm-.07.025-.084.051.102.172.085-.051-.103-.172Zm-.095.059-.085.067.125.156.084-.067-.124-.156Zm-.106.09-.067.101.166.111.068-.101-.167-.111Zm-.07.105-.202.338.171.103.203-.338-.172-.103Zm2.748.733-.211-.169-.125.156.21.17.126-.157Zm-.211-.169-.106-.084-.125.156.106.084.125-.156Zm-.114-.09-.156-.101-.109.168.156.1.11-.167Zm-.159-.103-.127-.076-.102.171.126.076.103-.171Zm-.131-.079-.178-.093-.092.177.177.093.093-.177Zm-.74-.366-.212-.093-.08.184.21.092.081-.183Zm-.212-.093-.105-.046-.08.183.105.047.08-.184Zm-.114-.05-.14-.046-.062.19.139.046.063-.19Zm-.147-.048-.067-.017-.049.194.068.017.048-.194Zm-.077-.019L9 9.226l-.027.198.059.008.028-.198Zm-.073-.01H8.97v.2h.018v-.2Zm-.009.001-.092-.008-.018.199.092.008.018-.199Zm-.101-.009h-.05v.2h.05v-.2Z" fill="#fff"/><path d="m10.683 9.857-.088.049.003.003.085-.052Zm-.118-.253-.096.029.004.01.092-.04Zm-.101-.338.095-.028v-.002l-.095.03Zm-.17-.54.096-.03v-.003l-.095.033Zm-.1-.287.094-.033-.002-.004-.092.037Zm-.135-.371-.1.02.005.012.095-.032Zm-.085-.523.1-.015-.003-.008-.097.023Zm-.101-.388.096-.03-.003-.008-.093.038Zm-.05-.203h-.1v.01l.001.01.098-.02Zm.1-.354a.1.1 0 0 0-.2 0h.2Zm.92 3.519-.085.052.007.01.078-.062Zm-.202-.338-.093.04.005.009.088-.049Zm-.515-1.51-.095.031.002.006.093-.037Zm-.088-.309-.1.015.001.005.098-.02ZM9.91 7.28l.097-.023-.002-.007-.095.03Zm-.055-.165-.098.021.002.008.003.009.093-.038Zm.805 2.461-.102-.337-.191.057.101.338.192-.058Zm-.102-.339-.169-.54-.19.06.168.54.191-.06Zm-.17-.543-.101-.287-.189.067.101.286.19-.066Zm.66 1.524-.127-.16-.157.124.127.16.156-.124Zm-.12-.15-.16-.262-.171.104.16.262.17-.105Zm-.159-.259-.042-.076-.175.098.043.076.174-.098Zm-.037-.066-.076-.178-.184.08.076.176.184-.078Zm-.447-1.34-.067-.169-.186.075.068.168.185-.074Zm-.065-.163-.068-.203-.19.064.068.202.19-.063Zm-.106-.43-.042-.28-.198.03.042.28.198-.03Zm.042.24-.021-.106-.197.04.021.105.197-.04Zm-.02-.101-.022-.14-.198.03.022.14.197-.03Zm-.066-.426-.042-.178-.194.047.042.177.194-.046Zm-.042-.178-.02-.088-.195.046.02.089.195-.047Zm-.023-.095-.038-.122-.19.06.037.122.191-.06Zm-.04-.13-.017-.042-.186.075.017.042.186-.075Zm-.012-.025-.034-.16-.196.04.034.161.196-.041Zm-.032-.275v-.22h-.2v.22h.2Zm0 .135v-.025h-.2v.025h.2Zm0-.025v-.11h-.2v.11h.2Z" fill="#fff"/><path d="M13.637 20.996v-.455l-.007-.062-.006-.027-.013-.055-.025-.11M14.042 22.143l.034-.22.016-.109.009-.067v-.135l-.009-.093-.016-.186v-.438l-.017-.102-.025-.076-.026-.059-.202-.37" stroke="#fff" stroke-width=".2" stroke-linecap="round"/><path d="M11.7 25.73a.1.1 0 0 0 .194.05l-.194-.05Zm.249-.549.097.026v-.003l-.097-.023Zm.101-.439.098.023-.098-.023Zm.084-.37-.095-.035-.002.012.097.022Zm.186-.524.094.034.002-.004-.096-.03Zm.22-.709-.093-.04-.003.01.095.03Zm.303-.692-.091-.04.091.04Zm.186-.422-.09-.043-.002.003.092.04Zm.186-.422.092.038.003-.007.002-.006-.097-.025Zm.033-.185.1.014v-.014h-.1Zm0-.473-.1-.006v.006h.1Zm.017-.27.1.006v-.006h-.1Zm0-.253-.1-.01v.01h.1Zm.017-.127.098.018v-.002l-.098-.016Zm-.008.047-.099-.018v.007l.099.01Zm-.042 1.194.097.024.002-.01-.1-.014Zm-.11.295.09.043.002-.005-.092-.038Zm-1.229 3.95.152-.574-.193-.051-.152.574.194.05Zm.153-.577.102-.439-.195-.045-.102.439.195.045Zm.102-.44.084-.37-.195-.045-.085.371.196.045Zm.08-.36.186-.523-.188-.066-.186.523.189.067Zm.188-.526.219-.71-.191-.058-.22.708.192.06Zm.215-.699.304-.692-.183-.08-.304.692.183.08Zm.304-.692.185-.421-.183-.081-.185.422.183.08Zm.413-1.204v-.338h-.2v.338h.2Zm0-.332.017-.27-.2-.012-.016.27.2.012Zm.033-.64.017-.11-.198-.03-.017.109.198.03Zm-.016.364v-.143h-.2v.143h.2Zm0-.143v-.072h-.2v.072h.2Zm0-.1.008-.08-.199-.02-.008.08.199.02Zm.007-.072.008-.047-.196-.036-.009.047.197.036Zm-.007.1v-.036h-.2v.036h.2Zm0-.036v-.002h-.2v.002h.2Zm-.017.994v-.034h-.2v.034h.2Zm0-.034v-.101h-.2v.1h.2Zm-.036.244.017-.068-.195-.048-.016.067.194.049Zm.019-.078.016-.118-.198-.028-.016.118.198.028Zm-.212.518.093-.194-.18-.086-.093.194.18.086Zm.095-.2.093-.227-.185-.075-.093.227.185.076ZM12.064 21.944a.1.1 0 0 0 .175.096l-.175-.096Zm.273-.29.088.049.005-.013-.093-.036Zm.118-.304.093.037.001-.003-.094-.034Zm.068-.185-.091-.042-.003.008.094.034Zm.1-.22-.084-.054-.006.012.09.042Zm.129-.227.09.042.005-.01.002-.009-.097-.023Zm.04-.228.1.012v-.012h-.1Zm-.012.105.098.023.001-.011-.099-.012Zm-.067.211.084.054.004-.007.004-.008-.092-.039Zm.012-.03-.09-.04-.002.001.092.04Zm-.486 1.264.186-.338-.176-.096-.185.337.175.097Zm.191-.35.118-.303-.186-.073-.118.304.186.072Zm.12-.306.067-.185-.188-.069-.068.186.188.069Zm.063-.177.102-.22-.182-.084-.101.22.181.084Zm.28-.785v-.32h-.2v.32h.2Zm0-.32v-.17h-.2v.17h.2Zm0 .388v-.009h-.2v.009h.2Zm0-.009v-.059h-.2v.06h.2Zm-.028.191.012-.054-.194-.045-.013.054.195.045Zm.014-.065.013-.105-.199-.024-.012.105.198.024Zm-.027.12.013-.055-.195-.045-.013.055.195.045Zm-.144.272.06-.093-.17-.107-.058.093.168.107Zm.06-.093.029-.046-.169-.108-.03.047.17.107Zm.037-.06.012-.03-.184-.079-.012.03.184.078Zm.011-.028.027-.058-.182-.083-.027.058.182.083Zm.033-.077.003-.014-.195-.045-.003.014.195.045Z" fill="#fff"/><path d="m11.342 24.034.135-.54.042-.245.021-.122.01-.061.006-.03.005-.048V22.6l.007-.034.006-.017.012-.034.026-.067.025-.068.013-.05.012-.102v-.321l.026-.286.025-.17.068-.455.033-.126.017-.064.034-.08.025-.042.042-.06.085-.117.084-.11.042-.055.022-.027.02-.028.008-.015.007-.016.015-.032.03-.063.03-.064.014-.031.015-.049.008-.027.009-.044.017-.09.033-.176" stroke="#fff" stroke-width=".2" stroke-linecap="round" stroke-linejoin="round"/><path d="m11.662 19.51-.04-.091-.008.003-.008.005.056.083Zm-.203.135-.055-.083-.012.008-.009.01.076.065Zm-.185.22-.076-.065-.005.006-.004.006.085.053Zm-.169.27-.085-.053-.004.007-.004.009.093.037Zm-.067.168.09.045.002-.007-.092-.038Zm-.085.17-.09-.046-.006.013-.002.014.098.018Zm-.067.37-.099-.017-.001.008v.01h.1Zm-.1.237a.1.1 0 1 0 .2 0h-.2Zm1.073-1.763-.236.102.078.183.236-.1-.078-.185Zm-.253.11-.202.135.11.167.203-.135-.11-.167Zm-.223.154-.185.22.152.128.186-.219-.153-.13Zm-.194.23-.169.27.17.107.169-.27-.17-.106Zm-.177.287-.067.168.185.075.068-.17-.186-.073Zm-.064.16-.084.17.179.089.084-.169-.179-.09Zm-.093.196-.068.372.197.035.068-.37-.197-.037Zm-.07.39v.236h.2v-.237h-.2Z" fill="#fff"/><path d="M9.933 23.05a.1.1 0 0 0 .185.077l-.185-.077Zm.21-.248.093.038.004-.01-.097-.028Zm.152-.524.097.028a.107.107 0 0 0 .003-.017l-.1-.01Zm.051-.49-.097-.024a.087.087 0 0 0-.002.015l.1.01Zm.085-.32-.091-.041a.111.111 0 0 0-.006.016l.097.025Zm.185-.405-.083-.055a.103.103 0 0 0-.008.014l.091.041Zm.304-.455-.07-.071a.096.096 0 0 0-.013.015l.083.056Zm.338-.338.07.071.008-.009-.079-.062Zm.202-.253-.077-.064-.001.001.078.063Zm-1.342 3.11.118-.287-.185-.076-.118.286.185.077Zm.122-.297.152-.524-.193-.056-.152.524.193.055Zm.155-.541.05-.49-.198-.02-.051.49.199.02Zm.048-.475.084-.32-.193-.051-.085.32.194.051Zm.078-.304.186-.405-.182-.084-.186.406.182.083Zm.178-.391.304-.456-.166-.111-.304.456.166.11Zm.292-.44.337-.338-.141-.142-.338.338.142.141Zm.345-.347.202-.253-.156-.125-.203.253.156.125Zm.2-.251.507-.608-.153-.128-.507.608.154.128Z" fill="#fff"/><path d="M13.318 29.603a.1.1 0 0 0 .2.018l-.2-.018Zm.285-2.059-.099-.014v.006l.1.008Zm.523-2.396-.095-.03-.001.004.096.026Zm1.047-2.667-.089-.047-.001.003.09.044Zm.894-1.561.087.05.006-.012.004-.012-.097-.026Zm.102-.625h.1v-.01l-.003-.012-.097.022Zm-.102-.396.094-.035-.004-.01-.006-.01-.084.055Zm-.506-.38.04-.093-.012-.003-.028.096Zm-.675-.127-.019-.098-.02.004-.017.011.056.083Zm-.49.6.067.074.007-.007-.074-.068Zm-.37.219.013.099.012-.002.01-.004-.036-.093Zm-.473 0-.028.097.013.002.014-.1Zm-.878-.405-.054.085.007.003.047-.088Zm-1.148-.7.048-.088-.003-.002-.045.09Zm-.641-.245-.048.087.008.005.008.003.032-.095Zm-.574-.338-.08.06.009.012.011.008.06-.08Zm-.32-.54.088-.048-.007-.01-.082.058Zm-.693-.506-.07.07.013.014.018.008.04-.092Zm-.152-.304-.095-.029-.005.014v.015h.1Zm.152-.456-.09-.041h-.001l.091.041Zm1.283-2.346.096.03.002-.008-.098-.022Zm.034-.32h.1v-.01l-.1.01Zm-.186-2.093h-.1v.008l.1-.008Zm.017-.557-.098-.024-.001.012.099.012Zm.355-.861-.086-.052-.004.007.09.045Zm.489-.743-.078-.063-.005.007.083.056Zm.456-.54.075.066.004-.005-.08-.06Zm.337-.557.095.033.003-.01.001-.01-.099-.013Zm0-1.384.1-.01v-.002l-.1.012Zm-.169-.624.096-.03-.003-.007-.093.037ZM10.7 4.177l.09-.044-.002-.004-.088.048Zm-.152-.304.014-.099a.1.1 0 0 0-.105.14l.091-.04Zm.726.27.05-.087-.009-.004-.041.091Zm.844.49.058-.082-.008-.005-.05.087Zm.742.523-.057.082.01.006.047-.088Zm.49.245-.03.095.008.002.007.002.015-.1Zm.186.017-.005.1h.013l-.008-.1Zm-.102-1.975h-.1v.006l.1-.006Zm.017-.717-.095-.032-.001.006.096.026Zm.135-.237-.06-.08-.01.008-.007.009.077.063Zm.21-.093v-.1h-.01l-.011.003.021.097Zm.381.093.05-.087-.01-.004-.04.091Zm.827.49.068-.074-.005-.005-.007-.004-.056.083Zm1.4 1.477.075-.067-.074.067Zm1.284 1.434.078-.063-.004-.003-.075.066Zm1.232 1.452-.07.071.007.007.063-.078Zm.438.329-.058.08.008.007.01.004.04-.091Zm.524.236-.042.091.008.003.034-.094Zm.573.203.047-.089-.006-.003-.007-.003-.034.095Zm.608.32.065-.076-.008-.007-.01-.005-.047.088Zm.709.608.078-.063-.006-.007-.007-.006-.065.076Zm.506.624.078-.062-.078.062Zm.643.852a.1.1 0 0 0-.171.103l.171-.103ZM10.937 3.99l.04-.091-.005-.002-.035.093Zm-.27-.1.035-.094-.01-.004-.011-.002-.015.1Zm-.051.134-.092.04.004.009.088-.049Zm5.553 16.523.096.027.004-.013v-.014h-.1Zm-.372-.92.054-.084-.009-.005-.045.09Zm-.557-.202.028-.096-.006-.002-.022.098Zm-.185-.042.022-.098-.012-.002-.01.1Zm-.3.13-.077-.064-.005.008.082.057Zm.198-.134v-.1h-.009l-.01.001.02.099Zm-.151.08-.072-.071-.005.006.077.065Zm-.275.384.08.061.002-.004-.082-.057Zm-.03.038.074.068.006-.007-.08-.061Zm-.18.181.048.087.01-.005.008-.007-.067-.075Zm-.195.11.037.094.012-.007-.049-.087Zm-.215.055v.1h.007l.007-.001-.014-.1Zm-.802-.194-.047.088.008.003.04-.091Zm.336.145-.04.093.013.003.027-.096Zm.23.049-.014.099h.014v-.1Zm-1.882-.98.053-.084-.005-.003-.048.088Zm-.447-.236.044-.089-.006-.003-.007-.002-.031.095Zm-1.123-.611-.088.048.004.006.005.006.08-.06Zm.224.22-.06.08.012.007.048-.088ZM9.18 17.34l-.093.038.005.012.008.01.08-.06Zm.05.068-.08.06.005.006.005.005.07-.07Zm-.084-.152h-.1v.02l.008.017.092-.037Zm.102-.426-.092-.04-.004.012.096.028Zm.117-.26-.087-.05-.004.01.09.04Zm1.25-2.352.097.022.003-.01v-.012h-.1Zm-.083.315.086.05.006-.01.003-.011-.095-.03Zm-.103-2.994-.1-.012v.012h.1Zm.042-.243-.092-.038-.003.007-.002.008.097.023Zm.211-.517-.09-.043-.002.006.092.037Zm.216-.4-.083-.056-.003.004.085.052Zm-.165.295-.09-.045v.002l.09.043Zm.776-1.148-.075-.066-.002.003.077.063Zm.43-.523.08.061.006-.008-.085-.053Zm.09-.143.084.052.006-.01.004-.01-.095-.032Zm.088-.414.1.013v-.013h-.1Zm0-.827h.1v-.01l-.1.01Zm-.085-.557.098-.022-.002-.008-.095.03Zm.043.186.1-.013-.003-.01-.097.023Zm-.793-1.89-.09.044.09-.044Zm.5 1 .093-.038-.004-.007-.09.045Zm1.786-1.802-.099.015.001.004.098-.02Zm.085.43.098-.018v-.001l-.098.02Zm.034.38.07.07.02-.019.007-.027-.098-.024Zm-.057.042.009.1.024-.002.02-.014-.053-.084Zm.073-.152h.1v-.009l-.001-.01-.099.02Zm-.236-1.352-.1.01.001.005.1-.015Zm-.017-.175-.1.006v.003l.1-.01Zm.021-1.068-.085-.051-.006.01-.004.01.095.031Zm-.038.127-.096-.026-.004.013v.013h.1Zm.114-.253-.077-.064-.005.006-.003.006.085.052Zm.089-.085-.039-.092-.011.005-.01.007.06.08Zm.101-.042-.021-.098-.009.002-.008.004.038.092Zm.101-.013.012-.1h-.012v.1Zm.186.026.04-.092-.011-.005-.013-.002-.016.099Zm-.093-.015.016-.099h-.004l-.012.099Zm.886.445.057-.083-.007-.004-.05.087Zm.844.777.075-.067-.004-.004-.07.07Zm-.27-.275.071-.07-.07.07Zm-.185-.187.07-.07-.002-.004-.069.074Zm-1.503 2.132.097.025.003-.012v-.013h-.1Zm-.033.085.054.084.009-.006.007-.007-.07-.071Zm-.237.03-.014.099h.01l.004-.1Zm-.16-.036-.047.088.008.004.01.003.029-.095Zm2.675 14.36.076-.065-.005-.006-.006-.005-.065.076Zm.05.06.085-.056-.008-.01-.076.065Zm.102.193.099-.021-.005-.013-.094.034Zm-.21-.303.064-.076-.005-.005-.006-.004-.054.085Zm-.195-.11.045-.09-.005-.002-.04.092Zm-.86-.152-.056-.083-.008.005-.008.007.071.071Zm.176-.046.01-.1h-.01v.1Zm.213 3.002-.086-.05-.002.003.088.047Zm-.592 1.314-.092-.04-.002.005.094.035Zm.354-.83-.09-.042-.002.004.092.039Zm-.915 2.49-.097-.025.097.025Zm.244-.825-.094-.035-.001.006.095.03Zm-.593 2.191-.097-.024-.002.01.1.014Zm-.128.928.1.009v-.001l-.1-.008Zm4.65-21.068-.078.063.002.003.075-.066Zm.329.38.08-.06-.005-.006-.075.066Zm.122.16-.08.06.005.007.005.005.07-.072Zm.392.355-.062.078.004.003.058-.081Zm-9.015 10.448a1.457 1.457 0 0 0-.332-.31 2.268 2.268 0 0 0-.402-.23l-.079.184c.11.047.244.123.365.21.123.087.227.18.285.262l.163-.116Zm.642-3.883-.185-2.093-.2.018.186 2.092.2-.017Zm.509-9.812.844.49.1-.174-.844-.49-.1.174Zm.836.485.743.523.115-.164-.742-.523-.116.164Zm4.27-.193 1.283 1.435.15-.133-1.284-1.435-.149.133Zm2.987 3.24.523.236.083-.182-.523-.236-.083.182Zm.531.24.574.202.067-.189-.574-.202-.067.188Zm.56.196.608.32.094-.176-.608-.32-.093.176Zm.59.308.709.608.13-.152-.709-.608-.13.152Zm.696.595.507.624.155-.126-.506-.624-.156.126Zm.506.624c.012.015.055.08.116.179a33.412 33.412 0 0 1 .377.62l.05.082.01.015h-.001l-.005-.01c.043-.127.175-.096.176-.094v.001c.001 0 .001 0 0 0l-.002-.004-.171.103a.112.112 0 0 0 .003.005v.001l.001.002c.001.001.133.033.176-.094a.165.165 0 0 0-.005-.01v-.001l-.001-.001a3.105 3.105 0 0 0-.06-.099 69.978 69.978 0 0 0-.378-.622 3.1 3.1 0 0 0-.13-.198l-.156.125ZM10.896 4.083l.337.152.082-.183-.338-.152-.082.183Zm-.362-.11.118.016.029-.198-.119-.017-.028.198Zm.097.01.27.102.07-.187-.27-.101-.07.187Zm.157.146-.085-.152-.175.097.085.152.175-.097Zm-.08-.144-.068-.152-.183.08.067.153.183-.081Zm5.456 16.961.101-.371-.193-.053-.101.371.193.053Zm.105-.398v-.253h-.2v.253h.2Zm-.68-1.125-.32-.093-.056.192.32.093.056-.192Zm-.327-.095-.185-.042-.044.195.185.042.044-.195Zm-.59.13-.113.164.164.114.114-.165-.164-.113Zm.263-.177-.068.013.037.197.068-.013-.037-.197Zm-.21.114-.046.055.152.13.047-.056-.153-.129Zm-.166.227-.114.165.164.114.114-.165-.164-.114Zm-.11.16-.03.038.158.123.03-.038-.159-.123Zm-.025.032-.101.11.147.135.101-.11-.147-.135Zm-.094.103-.08.072.133.149.08-.072-.133-.15Zm-.063.06-.097.054.098.174.097-.055-.098-.174Zm-.097.054-.097.055.098.174.097-.055-.098-.174Zm-.084.049-.097.038.072.186.098-.038-.073-.186Zm-.075.032-.118.017.028.198.118-.017-.028-.198Zm-.104.016h-.118v.2h.118v-.2Zm-.755-.183-.43-.228-.094.177.43.228.094-.177Zm.217.094-.224-.097-.08.183.224.097.08-.183Zm.21.076-.111-.032-.054.192.111.032.055-.192Zm-.099-.028-.111-.048-.08.183.112.049.08-.184Zm.309.04h-.118v.2h.118v-.2Zm-.104.002-.118-.017-.029.198.118.017.029-.198Zm-.957-.408-.59-.371-.107.17.59.37.107-.169Zm-.59-.371-.296-.186-.106.17.295.185.106-.17Zm-.301-.189-.262-.143-.096.175.262.143.096-.175Zm-.616-.294-.303-.101-.064.19.304.1.063-.189Zm.35.149-.185-.093-.09.179.187.093.089-.18Zm-.198-.098-.152-.051-.063.19.152.05.063-.19Zm-.44-.145-.295-.16-.095.175.295.16.096-.175Zm-.702-.56-.152-.278-.175.096.152.278.175-.095Zm.16.25-.092-.123-.16.121.093.123.16-.121Zm-.084-.11-.076-.14-.175.096.075.14.176-.096Zm.331.26-.147-.08-.096.175.148.08.095-.176Zm-.136-.073-.13-.097-.12.16.131.097.12-.16ZM9.37 17.406l-.067-.068-.142.142.068.067.141-.141Zm-.058-.057-.05-.067-.16.12.05.067.16-.12Zm-.038-.044-.034-.085-.185.074.033.085.186-.075Zm-.027-.048v-.084h-.2v.084h.2Zm.456-1.072.333-.583-.174-.1-.333.583.174.1Zm-.167.29.167-.29-.174-.1-.167.291.174.1Zm-.293.726.034-.114-.192-.056-.033.113.191.057Zm.034-.114.034-.114-.192-.056-.034.113.192.057Zm.034-.114.034-.113-.192-.057-.034.114.192.056Zm.03-.101.05-.114-.183-.081-.05.114.182.08Zm.05-.113.066-.146-.182-.083-.067.146.182.083Zm.062-.138.083-.145-.174-.1-.083.146.174.1Zm.583-1.019.333-.582-.173-.1-.334.583.174.1Zm.333-.582.167-.291-.174-.1-.166.292.173.099Zm.31-.627.034-.152-.195-.043-.034.152.196.043Zm.037-.174v-.168h-.2v.168h.2Zm-.18.51.083-.146-.173-.1-.084.146.174.1Zm.092-.166.05-.163-.192-.058-.05.162.192.059Zm-.098-2.605v-.279h-.2v.279h.2Zm.077-.726.085-.207-.186-.076-.084.207.185.076Zm-.077.447v-.14h-.2v.14h.2Zm0-.127.016-.14-.198-.023-.017.139.198.024Zm.014-.127.025-.104-.194-.047-.025.103.194.047Zm.02-.09.043-.103-.185-.076-.042.103.185.076Zm.127-.31.085-.207-.185-.075-.085.206.185.076Zm.421-.784.262-.388-.166-.112-.262.389.166.111Zm-.13.194.13-.194-.166-.111-.13.194.165.111Zm-.208.389.05-.106-.18-.086-.05.105.18.087Zm.05-.104.067-.135-.179-.09-.067.135.178.09Zm.063-.128.097-.16-.171-.104-.097.16.171.104Zm.481-.732.22-.27-.155-.126-.22.27.155.126Zm.218-.267.236-.27-.15-.132-.237.27.15.132Zm.24-.275.194-.253-.159-.122-.194.253.159.122Zm.2-.261.088-.144-.17-.105-.088.144.17.105Zm.098-.164.055-.16-.19-.065-.054.16.189.065Zm.06-.18.033-.253-.198-.026-.034.253.198.027Zm.034-.266V8.16h-.2v.287h.2Zm0-.287v-.354h-.2v.354h.2Zm0-.354V7.62h-.2v.186h.2Zm0-.197-.034-.304-.2.022.034.304.2-.022Zm-.09-.576-.117-.371-.19.06.117.371.19-.06Zm.055.27-.008-.067-.199.025.009.068.198-.025Zm-.01-.076-.042-.186-.195.044.042.186.195-.044Zm-.8-1.913-.583-1.181-.18.088.583 1.182.18-.089Zm.332.666-.333-.666-.179.09.333.666.18-.09Zm.303.675-.133-.334-.185.075.133.333.185-.074Zm-.136-.341-.167-.334-.179.09.167.333.179-.09Zm1.88-1.346-.085-.43-.196.038.085.43.196-.038Zm-.208.55.096-.01-.018-.198-.095.008.018.2Zm.259-.28-.05-.27-.197.038.05.27.197-.037Zm-.135-.697-.067-.434-.198.03.068.435.197-.03Zm-.134-1.208V2.98h-.2v.354h.2Zm-.2-.008v.008h.2v-.008h-.2Zm.267.782-.034-.217-.198.03.034.218.198-.031Zm-.033-.212-.017-.175-.2.02.018.175.199-.02Zm-.034-.452v-.118h-.2v.118h.2Zm.017.28-.017-.286-.2.012.017.287.2-.012Zm-.017-.744v-.127h-.2v.127h.2Zm.012-.222.021-.063-.19-.063-.02.063.19.063Zm.012-.043.038-.064-.171-.102-.038.063.171.103Zm-.024.138V2.79h-.2v.063h.2Zm-.003-.037.017-.064-.193-.051-.017.063.193.052Zm.065-.165.038-.063-.171-.103-.038.064.171.102Zm.03-.05.038-.047-.155-.127-.038.046.155.127Zm.02-.03.05-.039-.12-.16-.05.038.12.16Zm.03-.026.05-.021-.077-.185-.05.021.076.185Zm.05-.021.05-.022-.076-.184-.05.02.076.186Zm.033-.016.059-.013-.043-.195-.058.012.042.196Zm.037-.01h.043v-.2h-.043v.2Zm.189.016.151.068.082-.183-.152-.068-.082.183Zm-.157-.017.093.01.023-.198-.093-.01-.023.198Zm.089.01.092.015.032-.198-.093-.015-.031.198Zm.21.07.642.363.099-.174-.642-.363-.098.174Zm.635.359.186.126.112-.165-.185-.126-.113.165Zm.826.76.742.827.15-.133-.743-.827-.15.133Zm-.267-.27.27.274.143-.14-.27-.275-.143.14Zm-.385-.373.203.188.136-.147-.203-.188-.136.147Zm.2.185.185.188.142-.141-.185-.188-.143.14Zm-1.332 2.062v-.042h-.2V5.3h.2Zm-.02.092.009-.034-.194-.048-.008.034.194.048Zm.009-.034.008-.033-.194-.049-.008.034.194.048Zm-.108.136.04-.025-.108-.168-.04.025.108.168Zm.056-.038.017-.017-.141-.142-.017.017.141.142Zm-.406.045.084.012.03-.198-.084-.012-.03.198Zm.095.013.101.004.009-.2-.101-.004-.009.2Zm-.617-.269.237.127.094-.177-.236-.126-.095.176Zm.237.127.118.063.094-.176-.118-.064-.094.177Zm.118.063.059.032.094-.177-.059-.031-.094.176Zm.077.04.076.022.058-.19-.076-.024-.058.191Zm3.021 14.8-.05-.228-.196.043.05.228.196-.044Zm-.115-.43-.068-.102-.166.11.067.102.167-.11Zm-.075-.112-.05-.059-.153.13.05.06.153-.13Zm.14.314-.017-.076-.196.043.017.076.195-.043Zm-.021-.089-.034-.093-.188.069.034.093.188-.069Zm-.18-.295-.06-.05-.13.152.06.05.13-.152Zm-.071-.059-.093-.059-.107.169.092.059.108-.169Zm-.102-.064-.101-.05-.09.178.101.051.09-.179Zm-.106-.053-.135-.059-.08.183.135.06.08-.184Zm-.906-.177-.05.034.11.166.051-.034-.11-.166Zm-.066.046-.033.034.141.142.034-.034-.142-.142Zm.3-.07-.042-.005-.02.2.043.003.02-.199Zm-.052-.005h-.059v.2h.06v-.2Zm.66 2.525.482-.835-.173-.1-.481.835.173.1Zm-.24.418.24-.418-.172-.1-.24.418.172.1Zm-.17.305.052-.1-.177-.093-.053.099.177.094Zm.05-.096.12-.21-.173-.099-.12.209.173.1Zm-.587 1.303.236-.552-.184-.079-.236.553.184.078Zm.236-.552.118-.277-.184-.078-.118.276.184.079Zm.116-.273.186-.386-.18-.087-.186.387.18.086Zm-.562 1.378.211-.556-.187-.071-.21.557.186.07Zm-.347 1.094.055-.21-.193-.05-.055.209.193.05Zm.054-.205.19-.616-.191-.059-.19.616.19.059Zm.188-.61.105-.279-.187-.07-.105.278.187.07Zm-.38 1.36.069-.273-.194-.05-.07.274.194.05Zm.069-.273.07-.273-.194-.05-.07.274.194.05Zm-.21.82.14-.547-.194-.049-.139.546.194.05Zm-.187 1.085.12-.822-.197-.029-.12.822.197.029Zm.118-.812.07-.273-.194-.05-.07.274.194.05Zm-.303 2.874.118-1.308-.199-.018-.118 1.308.2.018Zm.118-1.308.06-.654-.2-.018-.059.654.2.018Zm.06-.655.008-.106-.2-.016-.008.106.2.016ZM17.61 5.953l.557.692.155-.126-.557-.692-.155.126Zm.559.695.33.38.15-.132-.329-.38-.151.132Zm.325.375.122.16.16-.121-.123-.16-.159.12Zm.132.17.224.22.14-.143-.224-.22-.14.144Zm.231.227.169.135.125-.156-.169-.135-.125.156Zm.173.138.27.194.117-.162-.27-.195-.117.163Z" fill="#fff"/><path d="M10.325 20.85a.1.1 0 0 0 .179.089l-.18-.09Zm.562-.884.088.046.003-.006-.091-.04Zm-.237.456-.088-.046-.001.001.09.045Zm.439-.928.093.04.003-.013-.096-.027Zm.05-.177-.092-.04-.004.012.097.027Zm-.16.689.202-.473-.184-.079-.202.473.183.079Zm-.24.462.118-.228-.177-.092-.118.228.177.092Zm.118-.228.118-.228-.177-.092-.118.228.177.092Zm-.235.463.118-.237-.18-.089-.117.236.179.09Zm-.06.118.06-.118-.18-.09-.058.118.179.09Zm-.058.118.029-.06-.179-.089-.03.06.18.089Zm.029-.06.03-.058-.18-.09-.029.06.179.089Zm.699-1.523.118-.279-.184-.078-.118.278.184.079Zm-.047.165.05-.177-.191-.055-.051.177.192.055Zm.041-.506-.169.245.165.113.169-.244-.165-.114Zm-.004.358.042-.06-.164-.114-.043.06.165.114Zm.042-.06.127-.184-.165-.114-.127.184.165.113Z" fill="#fff"/><path d="m11.477 20.709.01-.045.01-.044.011-.044.01-.045.022-.088.02-.089V19.19m0 0-.05-.034.034.152-.017-.135.034.27v-.253Z" stroke="#fff" stroke-width=".2" stroke-linecap="round" stroke-linejoin="round"/></svg>