<svg xmlns="http://www.w3.org/2000/svg" width="231" height="46" fill="none"><g clip-path="url(#a)"><path fill="#fff" d="M22.8 10.65c.2.26.31.62.53 1.33L28 27.48a19.3 19.3 0 0 0-5.58-1.91l-3.05-10.38a.4.4 0 0 0-.38-.29.4.4 0 0 0-.38.29l-3 10.38a19.3 19.3 0 0 0-5.61 1.9l4.7-15.5c.2-.7.32-1.06.53-1.32.18-.23.42-.41.7-.52.3-.13.67-.13 1.4-.13h3.36c.73 0 1.1 0 1.4.13.28.1.52.29.7.52Z"/><path fill="#FF5D01" d="M23.36 28.22c-.77.66-2.31 1.12-4.08 1.12-2.17 0-4-.69-4.48-1.6a5.14 5.14 0 0 0-.2 1.51s-.12 1.9 1.18 3.2c0-.68.55-1.23 1.22-1.23 1.16 0 1.16 1.02 1.16 1.85v.07c0 1.26.76 2.34 1.84 2.8a2.56 2.56 0 0 1-.25-1.12c0-1.2.7-1.64 1.5-2.16.65-.42 1.37-.87 1.86-1.8a3.4 3.4 0 0 0 .25-2.64Z"/></g><g clip-path="url(#b)"><path fill="#00D8FF" d="m61.84 18.42-.93-.3.14-.64c.71-3.45.25-6.23-1.33-7.15-1.51-.88-3.99.04-6.48 2.23-.25.21-.5.44-.73.66-.15-.15-.31-.3-.48-.44-2.62-2.34-5.24-3.33-6.82-2.41-1.5.88-1.96 3.5-1.32 6.77l.21.96c-.37.11-.73.22-1.07.34-3.07 1.08-5.03 2.77-5.03 4.52 0 1.81 2.1 3.63 5.3 4.73.26.09.52.17.79.24-.09.35-.16.7-.23 1.05-.6 3.21-.13 5.76 1.37 6.64 1.56.9 4.17-.03 6.72-2.26l.6-.57c.26.25.52.5.79.72 2.46 2.14 4.9 3 6.4 2.12 1.56-.9 2.06-3.65 1.4-6.98-.04-.26-.1-.52-.17-.78l.54-.17c3.33-1.11 5.49-2.9 5.49-4.74 0-1.76-2.02-3.46-5.16-4.54Zm-.72 8.1-.48.15a29.37 29.37 0 0 0-1.47-3.7 29.36 29.36 0 0 0 1.4-3.65c.3.09.6.18.87.28 2.68.93 4.32 2.3 4.32 3.36 0 1.13-1.77 2.6-4.64 3.55Zm-1.19 2.37c.3 1.47.33 2.8.14 3.85-.17.94-.52 1.56-.95 1.81-.91.54-2.87-.16-4.97-1.98-.25-.22-.5-.44-.73-.67.81-.9 1.63-1.95 2.43-3.1 1.4-.13 2.72-.34 3.92-.62.06.24.12.48.16.7ZM47.9 34.46c-.9.32-1.6.33-2.04.08-.91-.53-1.3-2.58-.77-5.33l.2-.97c1.2.26 2.51.45 3.92.57.8 1.13 1.64 2.18 2.49 3.1l-.56.5c-1.12 1-2.25 1.7-3.24 2.05Zm-4.19-7.95a10.47 10.47 0 0 1-3.38-1.81c-.72-.62-1.08-1.24-1.08-1.74 0-1.06 1.57-2.42 4.2-3.34.32-.11.65-.22 1-.31.36 1.18.84 2.43 1.41 3.68a30.5 30.5 0 0 0-1.43 3.74l-.72-.22Zm1.4-9.61c-.54-2.8-.18-4.92.73-5.45.97-.57 3.12.24 5.38 2.26l.44.4c-.85.91-1.68 1.95-2.47 3.08-1.37.13-2.67.33-3.87.6-.08-.3-.15-.6-.2-.9ZM57.63 20c-.29-.49-.58-.97-.89-1.45.93.11 1.82.27 2.65.46-.25.8-.56 1.65-.93 2.52-.27-.52-.55-1.02-.83-1.52Zm-5.1-5c.57.63 1.14 1.32 1.7 2.08a36.25 36.25 0 0 0-3.43 0c.57-.75 1.14-1.44 1.72-2.07Zm-5.14 5.02c-.28.5-.56 1-.82 1.5-.36-.86-.67-1.7-.92-2.52.83-.19 1.71-.34 2.63-.46l-.89 1.48Zm.92 7.45a26.2 26.2 0 0 1-2.68-.43c.26-.84.57-1.7.94-2.58a36.66 36.66 0 0 0 1.74 3ZM52.55 31a27.92 27.92 0 0 1-1.75-2.1 43.07 43.07 0 0 0 3.45-.01 26.5 26.5 0 0 1-1.7 2.1Zm5.91-6.6c.39.9.72 1.75.98 2.57-.85.2-1.75.35-2.71.47a43.77 43.77 0 0 0 1.73-3.04Zm-1.91.93a41 41 0 0 1-1.4 2.26 37.06 37.06 0 0 1-5.28 0 35.4 35.4 0 0 1-2.65-4.6 35.13 35.13 0 0 1 2.64-4.6 34.83 34.83 0 0 1 5.29-.01 37.67 37.67 0 0 1 2.64 4.58c-.38.8-.8 1.6-1.24 2.37ZM59.1 11.4c.97.56 1.35 2.84.74 5.82l-.13.58c-1.2-.28-2.5-.49-3.88-.62a29.24 29.24 0 0 0-2.45-3.08l.67-.61c2.14-1.88 4.14-2.62 5.05-2.09Zm-6.6 8.95a2.6 2.6 0 0 1 2.59 2.6 2.6 2.6 0 0 1-2.59 2.6 2.6 2.6 0 0 1-2.59-2.6 2.6 2.6 0 0 1 2.59-2.6Z"/></g><g clip-path="url(#c)"><path fill="url(#d)" d="M98.5 10c-5.73 0-9.32 2.88-10.75 8.64 2.15-2.88 4.66-3.96 7.53-3.24 1.63.41 2.8 1.6 4.1 2.93 2.1 2.15 4.54 4.64 9.87 4.64 5.73 0 9.32-2.89 10.75-8.65-2.15 2.88-4.66 3.96-7.53 3.24-1.63-.4-2.8-1.6-4.1-2.92-2.1-2.15-4.54-4.64-9.87-4.64ZM87.75 22.97c-5.73 0-9.32 2.88-10.75 8.64 2.15-2.88 4.66-3.96 7.53-3.24 1.63.41 2.8 1.6 4.1 2.92 2.1 2.15 4.54 4.64 9.87 4.64 5.73 0 9.32-2.88 10.75-8.64-2.15 2.88-4.66 3.96-7.53 3.24-1.63-.41-2.8-1.6-4.1-2.92-2.1-2.15-4.54-4.64-9.87-4.64Z"/></g><g clip-path="url(#e)"><path fill="#3178C6" d="M132.03 10h21.94c1.12 0 2.03.9 2.03 2.03v21.94c0 1.12-.9 2.03-2.03 2.03h-21.94c-1.12 0-2.03-.9-2.03-2.03V12.03c0-1.12.9-2.03 2.03-2.03Z"/><path fill="#fff" d="M145.29 30.36v2.8c.45.24 1 .42 1.62.53a10.66 10.66 0 0 0 3.88-.02 4.7 4.7 0 0 0 1.6-.63 3.23 3.23 0 0 0 1.48-2.92c0-.51-.08-.96-.23-1.34a3.12 3.12 0 0 0-.66-1.02 4.8 4.8 0 0 0-1.03-.8c-.4-.24-.85-.46-1.35-.68-.37-.15-.7-.3-1-.44a5 5 0 0 1-.74-.44 1.9 1.9 0 0 1-.48-.47 1 1 0 0 1-.16-.57c0-.19.05-.36.15-.52.1-.15.24-.28.42-.4.18-.1.4-.2.66-.25.27-.07.56-.1.88-.1a5.55 5.55 0 0 1 2.98.88v-2.62c-.42-.16-.89-.29-1.4-.36a11.4 11.4 0 0 0-1.74-.12c-.66 0-1.3.07-1.9.21-.59.15-1.11.37-1.57.67-.45.3-.8.7-1.07 1.16a3.4 3.4 0 0 0-.4 1.7c0 .83.25 1.54.73 2.13a5.51 5.51 0 0 0 2.2 1.5l1.08.46c.33.16.62.31.86.48.24.16.43.34.57.53a1.1 1.1 0 0 1 .08 1.16c-.09.16-.22.3-.4.4-.17.12-.4.21-.66.27a5.33 5.33 0 0 1-4.4-1.18Zm-4.68-6.98h3.6v-2.31h-10.05v2.31h3.6v10.28h2.85V23.38Z"/></g><g clip-path="url(#f)"><path fill="#E34F26" d="M168.1 33.36 166 10h23l-2.1 23.36-9.43 2.64"/><path fill="#EF652A" d="m177.5 33.6 7.58-2.05 1.78-19.7h-9.36"/><path fill="#ECEDEE" d="M177.5 20.4h-3.82l-.25-2.9h4.07v-2.8h-7.23l.77 8.55h6.46V20.4Zm0 7.35-3.26-.85-.2-2.25h-2.85l.36 4.45 5.95 1.6v-2.95Z"/><path fill="#fff" d="M177.5 23.25h3.51l-.35 3.65-3.16.85v2.95l5.85-1.6.82-8.7h-6.67v2.85Zm0-8.55v2.8h6.92l.26-2.8h-7.18Z"/></g><g clip-path="url(#g)"><path fill="#0C73B8" d="M201 33.36 199 10h22l-2 23.36-9.02 2.64"/><path fill="#30A9DC" d="m210 33.6 7.25-2.05 1.7-19.7H210"/><path fill="#ECEDEE" d="M210 20.4h-6.43l.25 2.85H210V20.4Zm0-5.7h-6.91l.24 2.8H210v-2.8Zm0 13.05-6.03-1.65.34 3 5.69 1.6v-2.95Z"/><path fill="#fff" d="M210 23.25h3.36l-.34 3.65-3.02.85v2.95l5.6-1.6 1.26-14.4H210v2.8h3.9l-.3 2.9H210v2.85Z"/></g><defs><clipPath id="a"><path fill="#fff" d="M10 10h18v26H10z"/></clipPath><clipPath id="b"><path fill="#fff" d="M38 10h29v26H38z"/></clipPath><clipPath id="c"><path fill="#fff" d="M77 10h43v26H77z"/></clipPath><clipPath id="e"><path fill="#fff" d="M130 10h26v26h-26z"/></clipPath><clipPath id="f"><path fill="#fff" d="M166 10h23v26h-23z"/></clipPath><clipPath id="g"><path fill="#fff" d="M199 10h22v26h-22z"/></clipPath><linearGradient id="d" x1="-42.45" x2="3680.76" y1="839.84" y2="2975.62" gradientUnits="userSpaceOnUse"><stop stop-color="#2298BD"/><stop offset="1" stop-color="#0ED7B5"/></linearGradient></defs></svg>