<svg width="100" height="100" viewBox="0 0 100 100" fill="none" xmlns="http://www.w3.org/2000/svg">
<g clip-path="url(#clip0_82_109)">
<rect width="100" height="100" rx="50" fill="white"/>
<path d="M101 -1H-1V101H101V-1Z" fill="black" stroke="#231F20" stroke-miterlimit="10"/>
<path d="M73.9941 34.2272C73.6373 33.512 73.2127 32.8326 72.7512 32.1962C72.7453 32.1888 72.7423 32.1828 72.7379 32.1769C70.631 29.077 68.4991 27.4712 67.0792 26.6699C67.0778 26.6684 67.0748 26.6669 67.0719 26.6654C66.3877 26.2342 64.5492 25.4923 63.408 25.0507C63.3962 25.0448 63.3844 25.0389 63.3711 25.0344H63.3697C62.5661 24.7177 61.742 24.2464 61.6417 24.1884C61.6343 24.184 61.6314 24.1825 61.6314 24.1825C61.4618 24.071 61.3335 23.9803 61.2716 23.9371C61.2436 23.9163 61.2289 23.9059 61.2289 23.9059C60.8986 23.6472 60.6155 23.393 60.3767 23.161C60.3722 23.1566 60.3678 23.1521 60.3619 23.1477C59.6395 22.5232 58.544 21.1777 57.9778 20.461C57.9764 20.4581 57.9734 20.4536 57.9705 20.4506C57.8923 20.3406 57.8024 20.2217 57.7036 20.0938C54.7696 16.3352 52.1688 13.5297 50.8816 12.1945C50.8448 12.1544 50.8079 12.1172 50.7725 12.0801C50.5632 11.86 50.3567 11.6489 50.1533 11.4497C49.3984 10.7018 48.6907 10.0818 48.0478 9.57037C48.0434 9.56739 48.039 9.56442 48.0346 9.55996H48.0331C46.7047 8.40473 45.0991 7.37142 44.53 7.01608L44.5182 7.00864L44.3147 6.89119L44.1407 6.79008L44.1348 6.78711C44.1348 6.78711 43.7987 11.1449 44.4901 15.9858C44.5005 16.0854 44.5108 16.249 44.496 16.3531C44.4946 16.3679 44.4931 16.3798 44.4901 16.3917C44.2749 17.4756 43.2089 17.2942 42.6619 17.1247C42.6575 17.1232 42.6516 17.1202 42.6442 17.1188C42.6324 17.1158 42.6192 17.1113 42.6059 17.1069C42.429 17.0444 42.1577 16.8824 42.0884 16.8407C42.0781 16.8333 42.0722 16.8303 42.0722 16.8303L39.9623 15.461L38.6472 14.6076L34.7282 12.1351L35.3224 13.2903L37.733 18.1892L37.7537 18.2309C37.7625 18.2487 37.7758 18.274 37.7891 18.3037L37.851 18.4301C37.8569 18.442 37.8628 18.4524 37.8687 18.4643C37.8996 18.5267 37.935 18.5981 37.9734 18.6754C38.1016 18.9371 38.2609 19.2701 38.4054 19.5809V19.5838C38.4054 19.5838 38.4113 19.5957 38.4142 19.6017C38.4186 19.6106 38.423 19.6225 38.4304 19.6374C38.4348 19.6478 38.4393 19.6567 38.4437 19.6671C38.5115 19.8307 38.6707 20.2128 38.8595 20.7316C38.8595 20.7391 38.8639 20.7465 38.8668 20.7539C39.318 22.0088 39.9254 24.0382 39.8281 25.6737C39.8281 25.6737 39.8267 25.6945 39.8252 25.7183C39.8252 25.7257 39.8237 25.7347 39.8237 25.7436C39.8237 25.7495 39.8222 25.757 39.8222 25.7659C39.8208 25.7837 39.8193 25.8001 39.8178 25.8179C39.8163 25.8268 39.8163 25.8373 39.8149 25.8477C39.8075 25.9265 39.7957 26.0276 39.7765 26.1495C39.7721 26.1807 39.7677 26.2134 39.7618 26.2446C39.6527 26.8958 39.3652 28.0035 38.6162 29.0457L38.6088 29.0561C38.5263 29.1825 38.4363 29.3133 38.339 29.4472C38.3302 29.4605 38.3198 29.4739 38.311 29.4858C38.196 29.6434 38.081 29.801 37.9675 29.9527C37.9675 29.9527 37.8097 30.1697 37.5856 30.476L37.3526 30.7957C37.0076 31.2729 36.5978 31.8468 36.3501 32.217C36.3456 32.2245 36.3412 32.2304 36.3353 32.2379C36.3103 32.2795 36.2837 32.3166 36.2616 32.3523C36.2542 32.3642 36.2469 32.3746 36.2395 32.385C36.2336 32.3954 36.2262 32.4044 36.2203 32.4133C35.834 33.008 35.3784 33.7306 35.0039 34.3848C35.0039 34.3848 35.0025 34.3848 35.001 34.3892C35.001 34.3892 35.001 34.3922 34.9951 34.3981C34.9936 34.4011 34.9922 34.4041 34.9892 34.4071C34.9538 34.4591 34.8447 34.6345 34.7282 34.8828C34.7253 34.8858 34.7238 34.8903 34.7223 34.8932C34.6693 35.0077 34.6147 35.1356 34.5661 35.2768C34.5587 35.2991 34.5513 35.3229 34.5439 35.3467C34.4953 35.5117 34.4466 35.7035 34.4053 35.9236C34.4039 35.931 34.4039 35.937 34.4024 35.9444C34.3965 35.9786 34.3906 36.0128 34.3832 36.047C34.3832 36.05 34.3832 36.0529 34.3832 36.0544C34.2785 36.6818 34.2255 37.5159 34.3007 38.6087C34.3051 38.6637 34.3095 38.7187 34.3139 38.7752C34.4746 40.7274 34.6811 43.3114 34.7341 44.2689C34.7798 45.0896 34.7091 45.6724 34.628 46.0471H34.6265C34.6265 46.0471 34.5086 46.4901 34.3449 46.7741C34.3419 46.7786 34.3405 46.7816 34.3375 46.786C34.3331 46.792 34.3302 46.7994 34.3272 46.8053C33.6932 47.8729 30.9818 52.467 30.3935 53.7813C30.1237 54.3835 30.0367 54.7819 30.0294 55.0436V55.0614C30.0338 55.1343 30.0824 55.4138 30.5572 55.6874C30.5601 55.6889 30.5646 55.6918 30.5675 55.6933C31.1617 55.9922 32.2867 56.6791 32.8499 57.7986C33.5384 59.165 34.7548 59.8697 35.3843 60.0734H35.3858L35.3888 60.0749H35.3947C35.3947 60.0749 35.405 60.0793 35.4109 60.0808C35.4433 60.0927 35.4743 60.1016 35.5038 60.1091C35.5067 60.1091 35.5082 60.1106 35.5111 60.1106C35.7647 60.1864 36.3515 60.3693 36.788 60.5596C36.8086 60.5685 36.8292 60.5774 36.8484 60.5863C36.9074 60.6131 36.9619 60.6384 37.0121 60.6651H37.015C37.2671 60.79 37.5134 60.9223 37.7566 61.0621C38.945 61.746 42.1415 63.5926 42.914 64.0996C43.4109 64.4252 44.0434 64.4772 44.5359 64.452C45.0106 64.4267 45.4603 64.2319 45.8038 63.9004C46.1282 63.5852 46.572 63.1272 46.9848 62.5994C46.9863 62.5979 46.9878 62.5965 46.9878 62.595C47.4433 62.0582 47.7928 61.9036 47.9078 61.865C47.9343 61.856 47.9491 61.8531 47.9491 61.8531C48.123 61.807 48.3059 61.7847 48.4887 61.7787H48.4902C48.5388 61.7743 49.6667 61.688 50.9229 62.3422C50.9258 62.3452 50.9288 62.3467 50.9317 62.3467C51.1809 62.4656 51.3947 62.6024 51.5805 62.7541C51.5834 62.757 51.5864 62.7585 51.5893 62.7615C52.4754 63.487 52.6818 64.5412 52.6435 65.4659C52.614 66.2079 52.412 66.9289 52.0773 67.5861C52.0773 67.5861 52.0773 67.5891 52.0759 67.5906C52.0729 67.5965 52.07 67.6025 52.0655 67.6084C52.0316 67.6679 51.9329 67.8389 51.7839 68.099C51.8355 68.0188 51.8842 67.9385 51.9314 67.8567L49.2908 72.7452C49.2908 72.7452 49.2893 72.7467 49.2878 72.7497C49.1492 72.9653 44.7319 79.9071 43.3446 95.5778C43.3416 95.612 43.3387 95.6461 43.3357 95.6803C43.3254 95.7874 43.3165 95.8929 43.3077 96C42.9155 79.9799 49.1138 71.0488 50.9052 67.8954C51.548 66.7253 51.6822 65.7945 51.7029 65.3232C51.7043 65.3009 51.7043 65.2786 51.7043 65.2593C51.7088 65.0809 51.697 64.9842 51.697 64.9842V64.9798C51.6925 64.9025 51.6866 64.8341 51.6807 64.7776C51.6807 64.7701 51.6793 64.7627 51.6778 64.7538C51.6689 64.6735 51.6527 64.6006 51.6409 64.5531C51.635 64.5263 51.6291 64.507 51.6262 64.4981C51.551 64.2483 51.436 64.0996 51.4021 64.0624C51.4006 64.0595 51.3977 64.0565 51.3962 64.055C51.3962 64.052 51.3932 64.0505 51.3932 64.0505C50.8831 63.3532 49.8274 63.0217 49.3556 62.9027C49.332 62.8968 49.3084 62.8923 49.2878 62.8864C49.2509 62.8775 49.2215 62.8715 49.1949 62.8656C49.1758 62.8596 49.1566 62.8566 49.1389 62.8537C49.1256 62.8522 49.1197 62.8507 49.1197 62.8507C48.4105 62.7318 47.98 63.0603 47.7589 63.3205L47.7456 63.3354L46.6236 64.614L46.6206 64.617C46.6 64.6393 46.4452 64.8014 46.311 64.9039C46.2904 64.9188 46.2697 64.9337 46.2506 64.9456C45.8805 65.1879 45.4338 65.3931 44.9162 65.4808H44.9118C44.7614 65.5061 44.6052 65.521 44.4415 65.5239H44.4223C44.3235 65.5239 44.2233 65.5224 44.1201 65.515L43.8237 65.4808C43.5569 65.4377 43.2782 65.3634 42.9848 65.2504L42.9745 65.2459H42.9715L42.5631 65.0615L42.5454 65.0541C42.5189 65.0422 42.4924 65.0288 42.4658 65.0154C42.4068 64.9842 42.3479 64.953 42.2889 64.9188C42.1842 64.8593 42.0781 64.7954 41.9704 64.7255C41.7684 64.5947 41.5679 64.4668 41.3703 64.3419L41.0932 64.1695C40.701 63.9256 40.3191 63.6952 39.949 63.4781C39.9343 63.4707 39.9196 63.4618 39.9048 63.4528L39.7765 63.377L39.6276 63.2908C39.2576 63.0752 38.9008 62.873 38.5646 62.6886C38.5543 62.6827 38.5454 62.6767 38.5366 62.6723L38.4879 62.647L38.3685 62.5816L38.1901 62.4835L38.1621 62.4671C38.0648 62.4151 37.9704 62.363 37.8775 62.314C37.6873 62.2114 37.506 62.1162 37.3335 62.0255L37.189 61.9497C36.8985 61.7995 36.6346 61.6657 36.4046 61.5512C36.297 61.4977 36.1894 61.4472 36.0817 61.3981C35.6453 61.1974 35.1986 61.0234 34.7445 60.8644C32.9369 60.2295 32.4002 59.0609 32.4002 59.0609C31.8723 57.7228 30.9892 57.0493 30.4142 56.7385C30.3965 56.7281 30.3773 56.7177 30.3567 56.7073C30.3301 56.6924 30.3036 56.6791 30.2785 56.6672C30.2771 56.6657 30.2741 56.6657 30.2726 56.6642C30.249 56.6538 30.2269 56.6419 30.2048 56.6315C30.0662 56.5631 29.9483 56.5007 29.8451 56.4442C29.8171 56.4293 29.7905 56.4144 29.7654 56.3981C29.158 56.0264 29.0327 55.4421 29.0047 55.228C29.0047 55.2176 29.0047 55.2086 29.0047 55.2012C28.987 54.9128 29.0253 54.6927 29.0253 54.6927C29.0253 53.5747 33.1315 46.9451 33.4337 46.3102C33.736 45.6754 33.7109 44.8636 33.7109 44.8636C33.7109 44.8636 33.3703 40.6902 33.2214 38.0051C33.2214 37.9858 33.2199 37.9649 33.2185 37.9441C33.2126 37.8579 33.2081 37.7717 33.2052 37.6884C33.1403 35.876 33.6195 34.7342 33.8215 34.3387C33.8525 34.2777 33.8775 34.2346 33.8908 34.2093C33.8937 34.2049 33.8967 34.2004 33.8982 34.1974C33.9011 34.1915 33.9041 34.1885 33.9055 34.1855C33.907 34.184 33.9085 34.1826 33.9085 34.1826C34.1842 33.6889 34.5144 33.1522 34.8639 32.6125C34.9066 32.5456 34.9509 32.4787 34.9951 32.4133C35.0865 32.272 35.1809 32.1323 35.2738 31.994C35.4581 31.719 35.6424 31.4499 35.8208 31.1897C35.8399 31.1644 35.8576 31.1376 35.8768 31.1109L35.9313 31.0336L35.977 30.9696C36.297 30.5132 36.6037 30.0924 36.8631 29.7401C36.8764 29.7207 36.8912 29.7029 36.9044 29.6836L37.1049 29.4159C37.1757 29.3208 37.2421 29.2346 37.3025 29.1558C37.4426 28.964 37.5679 28.7796 37.6785 28.6027C37.6814 28.6012 37.6829 28.5982 37.6844 28.5952C37.6932 28.5819 37.7021 28.5685 37.7094 28.5551C37.938 28.2131 38.1695 27.7641 38.3139 27.4653C38.3169 27.4608 38.3184 27.4578 38.3198 27.4534C38.3744 27.3553 38.4216 27.2556 38.4629 27.1516C38.4658 27.1441 38.4673 27.1412 38.4673 27.1412C39.4477 24.7474 37.8937 21.0141 37.7802 20.7465C37.7773 20.7361 37.7743 20.7316 37.7743 20.7316C37.6048 20.2916 37.416 19.85 37.2214 19.4411C37.2155 19.4292 37.1934 19.3802 37.1551 19.3014C36.8145 18.5788 35.29 15.3421 35.1337 15.0105C35.1248 14.9912 35.1204 14.9823 35.1204 14.9823C34.1473 12.7848 33.1831 10.5234 33.1831 10.5234C34.569 10.8282 39.8075 14.1051 41.6711 15.4506C42.5734 16.1033 43.0276 16.2668 43.2546 16.2609H43.262C43.2723 16.2609 43.2826 16.2609 43.2915 16.2579H43.2944C43.3696 16.2371 43.3711 16.1286 43.3711 16.1286C43.3711 16.0141 43.3504 15.8535 43.321 15.6915C43.0688 13.5787 43.0172 11.5285 43.0497 9.80528V9.76365C43.0349 7.35506 43.3563 5.14273 43.3755 5.00892C43.377 5.00446 43.377 5.00297 43.377 5.00297V5C44.8882 5.63783 46.4437 6.74994 46.7209 6.95214C46.7401 6.96553 46.7519 6.97593 46.7592 6.98039L46.7651 6.98485C51.8709 10.5977 57.3173 17.6302 59.2547 20.2603C61.6579 23.5208 62.3111 23.4316 66.9981 25.525C71.613 27.5872 73.9292 34.0265 74 34.2272H73.9941Z" fill="white"/>
<path d="M37 29.859L36.8021 30.122C36.789 30.141 36.7745 30.1585 36.7614 30.1775L34.9905 27.9043C34.2383 27.0117 33.3216 25.9554 32.3787 24.9489C32.7308 26.5676 33.1295 27.8897 33.5122 28.9445C34.9454 30.3207 35.8869 31.3857 35.8869 31.3857L35.8418 31.4485L35.7879 31.5245C35.769 31.5508 35.7515 31.5771 35.7326 31.6019C35.0298 30.8072 34.3489 30.084 33.6926 29.4251C34.4769 31.4529 35.1564 32.3455 35.1928 32.3908C35.1011 32.5281 35.008 32.6655 34.9178 32.8042C34.8741 32.8685 34.8305 32.9343 34.7883 33C28.661 28.3455 26.7359 30.1658 26.1815 31.2162C28.0484 27.2513 34.7606 32.6771 34.9149 32.8013C34.199 31.8766 33.4976 29.9671 33.1295 28.8714C33.1091 28.8495 33.0873 28.8291 33.0669 28.8101C33 28.7458 32.9345 28.6815 32.869 28.6202C28.4165 24.3747 25.3114 23.2323 25 23.1242C27.6322 23.8663 30.6704 26.3031 32.869 28.3382C32.9011 28.3674 32.9316 28.3966 32.9636 28.4273C32.9738 28.4361 32.984 28.4449 32.9942 28.4551C32.9316 28.2579 32.8909 28.1234 32.8749 28.0723C32.872 28.0577 32.869 28.0504 32.869 28.0504C32.5955 26.9459 32.3772 25.8035 32.207 24.7663C30.7446 23.2177 29.2386 21.8137 28.1997 21.3287C28.3088 21.3652 29.5457 21.8181 32.1415 24.3645C31.8621 22.5939 31.7283 21.2089 31.7093 21C31.8723 22.2915 32.0688 23.4587 32.2841 24.5062C33.5398 25.7509 35.104 27.4763 37 29.859Z" fill="white"/>
<path d="M40 63.1809C39.9987 63.3305 39.9497 63.6154 39.9171 63.7806C39.9133 63.8034 39.9095 63.8248 39.9057 63.8433C39.902 63.8604 39.8995 63.8775 39.8957 63.8946C39.8944 63.8974 39.8944 63.9017 39.8932 63.9046C39.8228 64.2322 39.6871 64.6396 39.4282 65.0741H39.4269C39.4269 65.0741 39.4244 65.0798 39.4231 65.0812H39.4219C39.3527 65.1994 39.2748 65.3162 39.1868 65.4359C39.0423 65.661 38.8664 65.9516 38.7646 66.1781C38.7608 66.1838 38.7583 66.1895 38.757 66.1952C38.7419 66.2265 38.7306 66.2564 38.7206 66.2849C38.7181 66.2892 38.7168 66.292 38.7155 66.2963C38.7067 66.3205 38.6992 66.3405 38.6917 66.3576C38.6653 66.4288 38.6376 66.5057 38.6112 66.5869C38.61 66.5897 38.6087 66.594 38.6075 66.5969C38.4177 67.1268 38.2266 67.8476 38.1575 68.735C38.1575 68.735 38.1575 68.7393 38.1563 68.7493C38.1563 68.7593 38.1563 68.7692 38.1537 68.7792C38.1537 68.7835 38.1525 68.7892 38.1525 68.7949C38.1512 68.8063 38.1512 68.8162 38.15 68.8276C38.1487 68.8362 38.1487 68.8447 38.1487 68.8547C38.1336 69.0214 38.1098 69.3291 38.0984 69.567L37.8282 71.9501L37.8119 72.0912C37.8069 72.1424 37.8031 72.1966 37.8006 72.2536V72.2564C37.7943 72.3447 37.6485 74.3148 37.5266 75.1439C37.5216 75.1766 37.5165 75.2108 37.5115 75.2436C37.5103 75.2479 37.5103 75.2507 37.5103 75.255C37.3858 76.0085 37.2199 76.6809 37.0025 77C37.0013 77 37 77 37 77C37.4085 76.0385 37.5417 73.8148 37.5844 72.5755V72.5698L37.6561 71.6895L37.8936 69.5071V69.5014C37.9627 68.1795 38.1789 66.3618 38.8199 65.4858C39.8932 64.0185 39.726 63 39.726 63L39.853 63.0826L39.9623 63.1553C39.9749 63.1638 39.9874 63.1724 40 63.1795V63.1809Z" fill="white"/>
<path d="M43 65.2326V68.3221C43 68.4664 42.9783 69.1655 42.5901 70.0781C42.5771 70.1075 42.5641 70.137 42.5511 70.1664C42.0762 71.2188 41.3155 72.9395 40.7411 74.4011C40.7411 74.4011 40.7382 74.4099 40.7309 74.4261C40.627 74.6911 40.5289 74.9472 40.4408 75.1886C40.4394 75.1915 40.4394 75.193 40.4379 75.1959C40.4365 75.1974 40.4365 75.2003 40.435 75.2033C40.3484 75.4079 39.4333 77.5996 39.276 78.2972C39.276 78.2987 39.276 78.3002 39.2745 78.3017C39.2702 78.3105 39.263 78.3311 39.2572 78.365C39.2572 78.3679 39.2558 78.3708 39.2558 78.3738C39.2558 78.3738 39.2558 78.3767 39.2543 78.3811C39.2211 78.5357 38.7174 80.8422 38.4648 81.69C38.446 81.7503 38.4301 81.8033 38.4143 81.8475C38.2555 82.3347 38.1068 82.7395 38 83C38.3089 82.058 38.7549 79.6043 38.9223 78.6608C38.9541 78.4753 38.996 78.2928 39.0465 78.1133C39.0465 78.1088 39.0494 78.1044 39.0508 78.0985C39.0681 78.0382 39.0869 77.9764 39.1071 77.916C39.1504 77.7836 39.2038 77.6216 39.2615 77.4391C39.263 77.4376 39.263 77.4362 39.263 77.4347C39.5805 76.5074 40.1752 74.8662 40.6314 73.6195C40.64 73.5945 40.6501 73.568 40.6617 73.54C40.7815 73.2236 40.9893 72.7025 41.2029 72.1726C41.2073 72.1623 41.2116 72.152 41.2159 72.1402C41.2419 72.0784 41.2665 72.0166 41.291 71.9548C41.2939 71.9445 41.2982 71.9356 41.3025 71.9268C41.3184 71.8871 41.3357 71.8459 41.3516 71.8061C41.3733 71.7502 41.3978 71.6943 41.4209 71.6368C41.6822 71.0039 42.0228 70.1988 42.2408 69.6866C42.3505 69.4275 42.4255 69.1773 42.4775 68.9491C42.4789 68.9374 42.4818 68.9226 42.4861 68.9065C42.5006 68.849 42.5136 68.7813 42.5237 68.7107C42.5237 68.7063 42.5251 68.7033 42.5251 68.6989C42.5699 68.3722 42.5699 67.9674 42.5699 67.9674V66.7015C42.5511 65.7153 42.5063 65.1575 42.4919 65C42.5179 65.0132 42.5439 65.0265 42.5699 65.0383L42.5872 65.0456L42.987 65.2267H42.9899L43 65.2326Z" fill="white"/>
<path d="M44.996 67.2752C44.996 67.2752 44.9973 67.2691 44.996 67.266C44.9434 66.1368 44.5728 65.2625 44.4757 65.0504C44.4596 65.0168 44.4515 65 44.4515 65H44.4474C44.31 65.0259 44.1671 65.0412 44.0175 65.0443H44C44 65.0443 44.2318 65.1755 44.4555 65.7691C44.4555 65.7691 44.456 65.7701 44.4569 65.7721C44.7385 66.5275 45.0094 68.032 44.7871 70.9664C44.7857 70.9771 44.7857 70.9893 44.7844 71C44.8639 70.4308 44.996 69.2482 45 67.7391V67.6734C45 67.5422 44.9987 67.4095 44.996 67.2752ZM44.7332 66.5015H44.7345C44.7345 66.5015 44.7345 66.5031 44.7358 66.5107C44.7358 66.5076 44.7345 66.5046 44.7332 66.5015Z" fill="white"/>
<path d="M36 61.1496C36 61.1496 35.6406 61.5025 35.4926 62.0195C35.4926 62.0195 35.4852 62.0457 35.4749 62.0878C35.4749 62.0878 35.4705 62.0994 35.4645 62.1212C35.4172 62.2679 35.2264 62.8488 35.1214 63.0884C35.1155 63.0972 35.1125 63.1059 35.1081 63.1146C35.1066 63.1175 35.1051 63.1204 35.1051 63.1233C34.4705 64.4957 33.1674 66.8587 33.0135 66.9937C32.8138 67.1695 34.8847 63.5997 35.1998 62.2635C35.3625 61.5751 35.5415 61.2004 35.6761 61C35.784 61.0479 35.892 61.0973 36 61.1496Z" fill="white"/>
<path d="M40.8613 66.6182C40.8613 66.6182 40.8613 66.6214 40.8599 66.623C40.8416 66.6934 40.802 66.8086 40.713 66.9543L40.5365 67.1847L40.5323 67.1895C40.497 67.2311 40.4574 67.2808 40.4179 67.34C40.3204 67.4856 40.2173 67.6888 40.1284 67.9705C40.1072 68.0345 40.0874 68.1017 40.0691 68.1737V68.1802L39.8671 68.8715L39.8601 68.8939C39.692 69.4236 39.4321 70.1982 39.2514 70.5503C39.2401 70.5711 39.2288 70.5919 39.2189 70.6095C39.2118 70.6207 39.2062 70.6319 39.2019 70.6431C39.1271 70.7808 39.0579 70.9008 39 71C39.4675 70.1198 39.7513 68.5578 39.7513 68.5578C39.7513 68.5578 39.9052 67.9225 40.1354 67.3944C40.1481 67.3624 40.1651 67.3272 40.1835 67.292C40.2004 67.2583 40.2202 67.2231 40.2399 67.1879C40.2428 67.1847 40.2442 67.1815 40.247 67.1767C40.2498 67.1719 40.2512 67.1671 40.2555 67.1623C40.3176 67.0599 40.3882 66.9559 40.4447 66.8759L40.4659 66.8471C40.48 66.8294 40.4927 66.8118 40.504 66.799C40.5069 66.7958 40.5097 66.7926 40.5111 66.7894C40.5196 66.7814 40.528 66.7702 40.5351 66.759H40.5365L40.5393 66.7542H40.5379C40.5464 66.743 40.552 66.7318 40.5591 66.7206C40.8882 66.1413 40.7286 64 40.7286 64L40.9941 64.1856C41.0237 65.4627 40.9362 66.2181 40.8613 66.6182Z" fill="white"/>
<path d="M41 67C41.8094 65.9439 41.6479 64 41.6479 64C41.7658 64.0671 41.8821 64.1284 41.9969 64.1841C42.0631 66.1479 41.0598 66.9543 41 67Z" fill="white"/>
<path d="M38.9142 62.688L38.7856 62.6234L38.5935 62.5266L38.5633 62.5105C38.4585 62.4592 38.3568 62.4078 38.2568 62.3594C38.0519 62.4371 37.863 62.5296 37.6851 62.6308C37.6851 62.3711 37.6804 62.1731 37.6708 62.0748L37.5152 62C37.5152 62 37.5263 62.2861 37.5343 62.7232C36.3432 63.4801 35.7747 64.7432 35.5079 65.8654C34.517 66.9421 33.9406 68.0071 33.6182 68.7626C33.6182 68.7626 33.6166 68.767 33.615 68.7699C33.6103 68.7802 33.6023 68.7993 33.5912 68.8271C33.5848 68.8418 33.5785 68.8565 33.5737 68.8711C33.5737 68.8726 33.5737 68.8741 33.5737 68.8755C33.5404 68.9621 33.4927 69.0985 33.4435 69.2745C33.4435 69.2745 33.4435 69.276 33.4419 69.2789C33.434 69.3171 33.3768 69.5914 33.353 69.7146C33.3498 69.7337 33.3482 69.7498 33.3466 69.7601C33.3466 69.763 33.3466 69.7645 33.3466 69.766L33.2371 70.608V70.6139C33.0783 72.7116 32.1207 74.7448 32 75C32.0873 74.8548 32.5098 74.1316 32.8988 73.2309C32.902 73.2191 32.9083 73.2059 32.9147 73.1927C32.9512 73.1062 32.9893 73.0167 33.0243 72.9272C33.3419 72.0808 33.5356 70.7708 33.6071 70.2192C33.6071 70.2148 33.6087 70.2105 33.6087 70.2061C33.6134 70.1327 33.623 70.0594 33.6357 69.986C33.6373 69.9699 33.6388 69.9611 33.6388 69.9611C33.6579 69.8437 33.6849 69.7249 33.7182 69.6046C33.7198 69.5973 33.723 69.5885 33.7246 69.5811C34.0819 68.211 35.1141 66.9348 35.1792 66.857C35.1808 66.8541 35.1824 66.8526 35.1824 66.8526C35.2443 66.7719 35.3063 66.6957 35.3666 66.6223C35.2396 67.5274 35.2872 68.2037 35.2872 68.2037C35.3206 67.5392 35.4031 66.9538 35.5222 66.436C35.8907 66.0062 36.1908 65.7172 36.2638 65.6497L36.2797 65.6351C36.6402 65.2566 36.9816 64.9309 37.0706 64.8459C37.0848 64.8312 37.0928 64.8239 37.0928 64.8239C37.0928 64.8239 37.0991 64.8165 37.1118 64.8033C37.1642 64.7461 37.3262 64.5745 37.5327 64.3515C37.5025 65.4781 37.4025 66.6707 37.1341 67.0712C37.1341 67.0712 37.4088 66.8776 37.5438 65.704C37.593 65.2845 37.6279 64.752 37.6518 64.2239C38.1583 63.6767 38.8507 62.9242 39 62.7291L38.9174 62.688H38.9142ZM37.539 63.7838C37.1468 64.2092 36.6211 64.7549 35.9176 65.4414C35.8637 65.4942 35.8113 65.5456 35.7604 65.5984C36.2305 64.2679 36.953 63.5227 37.539 63.1119C37.5406 63.3202 37.5406 63.5476 37.539 63.7838ZM37.6692 63.6415C37.6756 63.4215 37.6804 63.2102 37.6819 63.0166C38.1583 62.7144 38.5157 62.6381 38.5157 62.6381C38.4029 62.7907 38.1552 63.109 37.6692 63.6415Z" fill="white"/>
</g>
<defs>
<clipPath id="clip0_82_109">
<rect width="100" height="100" rx="50" fill="white"/>
</clipPath>
</defs>
</svg>
