<svg width="948" height="948" fill="none" xmlns="http://www.w3.org/2000/svg"><circle cx="474" cy="474" r="474" fill="#000"/><path d="m308 267 .368-.339-.022-.023-.024-.021L308 267Zm-12.5-10.5.322-.383-.009-.007-.313.39Zm-27-21.5.305-.396-.011-.009-.013-.008-.281.413ZM246 221l.245-.436-.019-.011-.021-.009L246 221Zm-15.786-7.952a.5.5 0 0 0-.428.904l.428-.904Zm44.286 26.577.313-.39-.008-.006-.305.396ZM262.625 231l.281-.413-.009-.007-.01-.006-.262.426ZM243.5 219.875l-.214.452.009.004.205-.456Zm6.938 3.625.262-.426-.009-.005-.008-.005-.245.436Zm81.43 68.661-23.5-25.5-.736.678 23.5 25.5.736-.678Zm-23.546-25.544-12.5-10.5-.644.766 12.5 10.5.644-.766Zm-12.509-10.507-14-11.25-.626.78 14 11.25.626-.78Zm-14-11.25-7-5.625-.626.78 7 5.625.626-.78Zm-7.008-5.631-6-4.625-.61.792 6 4.625.61-.792Zm-6.024-4.642-5.875-4-.562.826 5.875 4 .562-.826Zm-5.894-4.013-4.875-3-.524.852 4.875 3 .524-.852Zm-4.875-3-4.875-3-.524.852 4.875 3 .524-.852Zm-18.798-10.276-9-4.25-.428.904 9 4.25.428-.904Zm6.991 3.246-2.5-1.125-.41.912 2.5 1.125.41-.912Zm-2.491-1.121-4.5-2.125-.428.904 4.5 2.125.428-.904Zm9.423 5.151-2.437-1.5-.525.852 2.438 1.5.524-.852Zm-2.454-1.51-4.438-2.5-.49.872 4.437 2.5.491-.872ZM324 258l-.771.636.007.009.007.009L324 258Zm-16.5-20 .771-.636-.022-.028-.025-.026-.724.69Zm-10-10.5.724-.69-.015-.016-.016-.015-.693.721Zm-36.511-31.872a1 1 0 1 0-.978 1.744l.978-1.744ZM278 208.75l.693-.721-.049-.047-.054-.039-.59.807Zm-6.5-4.75-.602.798.006.005.006.004.59-.807Zm-6.875-5.188.602-.798-.054-.041-.059-.033-.489.872Zm79.132 80.534-19-22-1.514 1.308 19 22 1.514-1.308Zm-18.986-21.982-16.5-20-1.542 1.272 16.5 20 1.542-1.272Zm-16.547-20.054-10-10.5-1.448 1.38 10 10.5 1.448-1.38Zm-10.031-10.531-13-12.5-1.386 1.442 13 12.5 1.386-1.442Zm-13-12.5-6.5-6.25-1.386 1.442 6.5 6.25 1.386-1.442Zm-6.603-6.336-6.5-4.75-1.18 1.614 6.5 4.75 1.18-1.614Zm-6.488-4.741-6.875-5.188-1.204 1.597 6.875 5.187 1.204-1.596Zm-6.988-5.262-4.125-2.312-.978 1.744 4.125 2.313.978-1.745Z" fill="#fff"/><path d="m383 620.5 2-4.5 1-2.25.5-1.125.25-1.063L387 610v-2l.125-1.312.125-.813.125-.813.125-.812.5-3.25v-6.5" stroke="#fff" stroke-width="3" stroke-linecap="round"/><path d="m309 295.5.544-.839-.014-.009-.016-.009-.514.857Zm-9-5 .464-.886-.014-.007-.014-.007-.436.9Zm-16.5-8 .436-.9-.016-.008-.017-.007-.403.915ZM270 277l.316-.949-.036-.012-.037-.009-.243.97Zm-13.5-1v-1h-.123l-.12.03.243.97Zm-2 .5-.243-.97-.037.009-.036.012.316.949Zm-1.5.5-.316-.949-.104.035-.094.057.514.857Zm-2.5 1.5-.514-.857-.058.034-.053.042.625.781Zm-2.5 2-.625-.781-.121.097-.086.129.832.555Zm-2 3-.832-.555-.013.02-.012.021.857.514Zm-6.857 9.486a.998.998 0 0 0 .343 1.371.998.998 0 0 0 1.371-.343l-1.714-1.028Zm74.482 5.514.625-.781-.039-.031-.042-.027-.544.839Zm-8.375-5.25.514-.857-.024-.015-.026-.014-.464.886Zm-31.125-14.875.403-.915-.043-.019-.044-.015-.316.949ZM268 276.5l.243-.97-.051-.013-.051-.007-.141.99Zm-2.263-.25-.091.996.046.004h.045v-1Zm.513 0 .141-.99-.07-.01h-.071v1ZM263 276l.091-.996-.045-.004H263v1Zm37.436 13.6-16.5-8-.872 1.8 16.5 8 .872-1.8ZM261.5 275H260v2h1.5v-2Zm-1.5 0h-3.5v2h3.5v-2Zm-3.743.03-2 .5.486 1.94 2-.5-.486-1.94Zm-2.073.521-1.5.5.632 1.898 1.5-.5-.632-1.898Zm-1.698.592-2.5 1.5 1.028 1.714 2.5-1.5-1.028-1.714Zm-2.611 1.576-2.5 2 1.25 1.562 2.5-2-1.25-1.562Zm-2.707 2.226-2 3 1.664 1.11 2-3-1.664-1.11Zm-2.025 3.041-6 10 1.714 1.028 6-10-1.714-1.028Zm78.482 22.233-6.25-5-1.25 1.562 6.25 5 1.25-1.562Zm-6.25-5-3.125-2.5-1.25 1.562 3.125 2.5 1.25-1.562Zm-3.206-2.558-4.625-3-1.088 1.678 4.625 3 1.088-1.678Zm-4.655-3.018-3.75-2.25-1.028 1.714 3.75 2.25 1.028-1.714Zm-3.8-2.279-5.25-2.75-.928 1.772 5.25 2.75.928-1.772Zm-21.811-10.779-6.25-2.75-.806 1.83 6.25 2.75.806-1.83Zm-6.25-2.75-3.125-1.375-.806 1.83 3.125 1.375.806-1.83Zm-3.212-1.409-4.125-1.375-.632 1.898 4.125 1.375.632-1.898Zm-4.198-1.396-2-.5-.486 1.94 2 .5.486-1.94Zm-2.102-.52-1.75-.25-.282 1.98 1.75.25.282-1.98Zm-1.891-.26h-.513v2h.513v-2Zm-.422.004-2.737-.25-.182 1.992 2.737.25.182-1.992ZM263 275h-1.5v2h1.5v-2ZM316.5 292l-1.311.728.015.028.017.028L316.5 292Zm-3.5-7.5-1.437.431.025.082.033.078L313 284.5Zm-3-10 1.437-.431-.003-.008-.002-.008-1.432.447Zm-5-16 1.432-.447-.008-.026-.01-.026-1.414.499Zm-3-8.5 1.414-.499-.01-.029-.011-.029L302 250Zm-4-11-1.471.294.018.092.03.088L298 239Zm-2.5-15.5 1.483-.225-.009-.062-.015-.06-1.459.347Zm-3-11.5 1.433-.445-.018-.057-.022-.055-1.393.557Zm-1.5-6h-1.5v.156l.032.153L291 206Zm1.5-10.5a1.5 1.5 0 0 0-3 0h3Zm28.75 104.25-1.279.784.047.076.055.069 1.177-.929Zm-6-10-1.379.591.031.07.037.067 1.311-.728ZM300 245l-1.423.474.014.042.016.041L300 245Zm-2.625-9.125-1.483.225.005.035.007.034 1.471-.294Zm-3.75-20.25 1.459-.347-.011-.049-.015-.049-1.433.445ZM292 210.75l-1.468.309.027.127.048.121 1.393-.557Zm22.437 73.319-3-10-2.874.862 3 10 2.874-.862Zm-3.005-10.016-5-16-2.864.894 5 16 2.864-.894Zm-5.018-16.052-3-8.5-2.828.998 3 8.5 2.828-.998Zm19.763 45.57-3.75-4.75-2.354 1.858 3.75 4.75 2.354-1.858Zm-3.648-4.605-4.75-7.75-2.558 1.568 4.75 7.75 2.558-1.568Zm-4.718-7.694-1.25-2.25-2.622 1.456 1.25 2.25 2.622-1.456Zm-1.182-2.113-2.25-5.25-2.758 1.182 2.25 5.25 2.758-1.182Zm-13.236-39.716-2-5-2.786 1.114 2 5 2.786-1.114Zm-1.97-4.917-2-6-2.846.948 2 6 2.846-.948Zm-3.19-13.001-1.25-8.25-2.966.45 1.25 8.25 2.966-.45Zm1.238 7.181-.625-3.125-2.942.588.625 3.125 2.942-.588Zm-.613-3.056-.625-4.125-2.966.45.625 4.125 2.966-.45Zm-1.899-12.497-1.25-5.25-2.918.694 1.25 5.25 2.918-.694Zm-1.25-5.25-.625-2.625-2.918.694.625 2.625 2.918-.694Zm-.651-2.723-1.125-3.625-2.866.89 1.125 3.625 2.866-.89Zm-1.165-3.737-.5-1.25-2.786 1.114.5 1.25 2.786-1.114Zm-.425-1.002-1-4.75-2.936.618 1 4.75 2.936-.618ZM292.5 202v-6.5h-3v6.5h3Zm0 4v-.75h-3v.75h3Zm0-.75V202h-3v3.25h3Z" fill="#fff"/><path d="M404 622v-13.5l-.188-1.812-.187-.813-.375-1.625-.75-3.25" stroke="#fff" stroke-linecap="round"/><path d="m416 656 1-6.5.5-3.25.25-1.997v-4.003l-.25-2.75-.5-5.5v-13l-.5-3-.75-2.25L415 612l-6-11" stroke="#fff" stroke-width="3" stroke-linecap="round"/><path d="M348.05 762.616a1.5 1.5 0 1 0 2.9.768l-2.9-.768ZM354 746l1.45.384.006-.023.006-.024L354 746Zm3-13 1.462.337.001-.005L357 733Zm2.5-11-1.414-.502-.029.084-.02.086 1.463.332Zm5.5-15.5 1.414.502.01-.029.009-.029L365 706.5Zm6.5-21-1.373-.603-.035.078-.025.081 1.433.444Zm9-20.5-1.373-.604v.001l1.373.603Zm5.5-12.5-1.353-.647-.01.021-.01.022 1.373.604Zm5.5-12.5 1.389.566.04-.099.026-.103L391.5 640Zm1-5.5 1.485.212.015-.105v-.107h-1.5Zm0-14-1.497-.094-.003.047v.047h1.5Zm.5-8 1.497.094.003-.047v-.047H393Zm0-7.5-1.492-.157-.008.078V605h1.5Zm.5-3.75 1.476.268.003-.02.004-.02-1.483-.228Zm-.25 1.375-1.476-.268-.01.055-.006.056 1.492.157ZM392 638l1.455.364.019-.075.011-.077L392 638Zm-3.25 8.75 1.353.647.019-.04.017-.041-1.389-.566Zm-37.8 116.634 4.5-17-2.9-.768-4.5 17 2.9.768Zm4.512-17.047 3-13-2.924-.674-3 13 2.924.674Zm3.001-13.005 2.5-11-2.926-.664-2.5 11 2.926.664Zm2.451-10.83 5.5-15.5-2.828-1.004-5.5 15.5 2.828 1.004Zm5.519-15.558 6.5-21-2.866-.888-6.5 21 2.866.888Zm6.44-20.841 9-20.5-2.746-1.206-9 20.5 2.746 1.206Zm9-20.499 5.5-12.5-2.746-1.208-5.5 12.5 2.746 1.208ZM394 630.5v-10h-3v10h3Zm-.003-9.906.5-8-2.994-.188-.5 8 2.994.188Zm.986-19.116.5-3.25-2.966-.456-.5 3.25 2.966.456ZM394.5 612.5v-4.25h-3v4.25h3Zm0-4.25v-2.125h-3v2.125h3Zm-.008-3.093.25-2.375-2.984-.314-.25 2.375 2.984.314Zm.234-2.264.25-1.375-2.952-.536-.25 1.375 2.952.536Zm-.226 3.232v-1.063h-3v1.063h3Zm0-1.063V605h-3v.062h3ZM394 634.5v-1h-3v1h3Zm0-1v-3h-3v3h3Zm-1.045 6.864.5-2-2.91-.728-.5 2 2.91.728Zm.53-2.152.5-3.5-2.97-.424-.5 3.5 2.97.424Zm-6.132 14.935 2.75-5.75-2.706-1.294-2.75 5.75 2.706 1.294Zm2.786-5.831 2.75-6.75-2.778-1.132-2.75 6.75 2.778 1.132ZM359.124 651.018a1 1 0 1 0 1.752.964l-1.752-.964Zm6.376-9.518.876.482.032-.058.024-.062-.932-.362Zm3.5-9 .932.362.004-.01.004-.01-.94-.342Zm2-5.5-.908-.419-.017.038-.015.039.94.342Zm3-6.5-.844-.537-.036.057-.028.061.908.419Zm3.781-6.719.911.414.041-.091.023-.098-.975-.225ZM379 607l.993.119.007-.059V607h-1Zm-.375 3.125.974.225.012-.053.007-.053-.993-.119Zm-2 6.25.844.537.043-.069.032-.074-.919-.394Zm.375-.875-.91-.414-.005.01-.004.01.919.394Zm-16.124 36.482 5.5-10-1.752-.964-5.5 10 1.752.964Zm5.556-10.12 3.5-9-1.864-.724-3.5 9 1.864.724Zm3.508-9.02 2-5.5-1.88-.684-2 5.5 1.88.684Zm1.968-5.423 3-6.5-1.816-.838-3 6.5 1.816.838ZM380 605v-9.5h-2v9.5h2Zm0-9.5v-5h-2v5h2Zm0 11.5v-.25h-2v.25h2Zm0-.25V605h-2v1.75h2Zm-.776 5.225.375-1.625-1.948-.45-.375 1.625 1.948.45Zm.394-1.731.375-3.125-1.986-.238-.375 3.125 1.986.238Zm-.769 3.356.375-1.625-1.948-.45-.375 1.625 1.948.45Zm-4.005 7.437 1.75-2.75-1.688-1.074-1.75 2.75 1.688 1.074Zm1.75-2.75.875-1.375-1.688-1.074-.875 1.375 1.688 1.074Zm.95-1.518.375-.875-1.838-.788-.375.875 1.838.788Zm.366-.855.782-1.719-1.821-.828-.781 1.719 1.82.828Zm.846-1.908.093-.406-1.948-.45-.094.406 1.949.45Z" fill="#fff"/><path d="m336 712 4-16 1.25-7.25.625-3.625.313-1.813.156-.906.156-1.406v-11.5l.188-1 .187-.5.375-1 .75-2 .75-2 .375-1.5.375-3V649l.75-8.5.75-5 2-13.5 1-3.75.5-1.875 1-2.375.75-1.25 1.25-1.75 2.5-3.5 2.5-3.25 1.25-1.625.625-.813L361 601l.219-.469.219-.469.437-.937.875-1.875.875-1.875.437-.937.438-1.438.25-.812.25-1.313.5-2.625 1-5.25" stroke="#fff" stroke-width="2" stroke-linecap="round" stroke-linejoin="round"/><path d="m345.5 578-.394-.919-.084.036-.077.051.555.832Zm-6 4-.555-.832-.117.078-.091.108.763.646Zm-5.5 6.5-.763-.646-.047.055-.038.061.848.53Zm-5 8-.848-.53-.047.076-.033.083.928.371Zm-2 5 .894.447.019-.037.015-.039-.928-.371Zm-2.5 5-.894-.447-.064.128-.026.14.984.179Zm-2 11-.984-.179-.016.089v.09h1Zm-1 7a1 1 0 0 0 2 0h-2Zm30.606-50.419-7 3 .788 1.838 7-3-.788-1.838Zm-7.161 3.087-6 4 1.11 1.664 6-4-1.11-1.664Zm-6.208 4.186-5.5 6.5 1.526 1.292 5.5-6.5-1.526-1.292Zm-5.585 6.616-5 8 1.696 1.06 5-8-1.696-1.06Zm-5.08 8.159-2 5 1.856.742 2-5-1.856-.742Zm-1.966 4.924-2.5 5 1.788.894 2.5-5-1.788-.894Zm-2.59 5.268-2 11 1.968.358 2-11-1.968-.358ZM321.5 617.5v7h2v-7h-2Z" fill="#fff"/><path d="M295.613 683.429a1.5 1.5 0 0 0 2.774 1.142l-2.774-1.142Zm4.887-7.929 1.387.571c.021-.05.038-.101.054-.153l-1.441-.418ZM305 660l1.441.418c.025-.086.042-.174.051-.264L305 660Zm1.5-14.5-1.451-.382a1.602 1.602 0 0 0-.041.228l1.492.154Zm2.5-9.5-1.364-.625c-.036.078-.065.16-.087.243L309 636Zm5.5-12-1.248-.832a1.5 1.5 0 0 0-.116.207l1.364.625Zm9-13.5-1.061-1.061a1.52 1.52 0 0 0-.187.229l1.248.832Zm10-10 1.061 1.061c.039-.039.076-.081.11-.124l-1.171-.937Zm6-7.5-1.152-.96a.211.211 0 0 0-.019.023l1.171.937Zm-41.113 91.571 3.5-8.5-2.774-1.142-3.5 8.5 2.774 1.142Zm3.554-8.653 4.5-15.5-2.882-.836-4.5 15.5 2.882.836Zm4.551-15.764 1.5-14.5-2.984-.308-1.5 14.5 2.984.308Zm1.459-14.272 2.5-9.5-2.902-.764-2.5 9.5 2.902.764Zm2.413-9.257 5.5-12-2.728-1.25-5.5 12 2.728 1.25Zm5.384-11.793 9-13.5-2.496-1.664-9 13.5 2.496 1.664Zm8.813-13.271 10-10-2.122-2.122-10 10 2.122 2.122Zm10.11-10.124 6-7.5-2.342-1.874-6 7.5 2.342 1.874Zm5.981-7.477 15-18-2.304-1.92-15 18 2.304 1.92Z" fill="#fff"/><path d="M393.018 876.845a4.501 4.501 0 0 0 8.964.81l-8.964-.81ZM403 816l-4.453-.652-.021.146-.012.147L403 816Zm15.5-71-4.3-1.325-.028.09-.024.092L418.5 745Zm31-79-3.973-2.113-.043.08-.039.083L449.5 666Zm26.5-46.25 3.9 2.245.289-.502.152-.559L476 619.75Zm3-18.5h4.5v-.494l-.107-.482-4.393.976Zm-3-11.75 4.229-1.538-.185-.508-.3-.45L476 589.5Zm-15-11.25 1.804-4.123-.27-.118-.283-.082L461 578.25Zm-20-3.75-.829-4.423-.903.169-.764.51L441 574.5Zm-14.5 17.75 3.001 3.354.16-.144.146-.158-3.307-3.052Zm-11 6.5.636 4.455.517-.074.487-.19-1.64-4.191Zm-14 0-1.225 4.33.29.082.299.043.636-4.455Zm-26-12-2.395 3.81.142.089.148.078 2.105-3.977Zm-34-20.75 2.164-3.946-.075-.041-.077-.038L341.5 566Zm-19-7.25-2.147 3.955.348.189.376.125 1.423-4.269Zm-17-10-3.585 2.72.388.511.516.383 2.681-3.614Zm-9.5-16 3.951-2.155-.131-.239-.158-.222L296 532.75Zm-20.5-15-3.182 3.182.613.613.796.341 1.773-4.136Zm-4.5-9-4.315-1.278-.185.625v.653h4.5Zm4.5-13.5-4.094-1.869-.009.021-.009.02 4.112 1.828Zm38-69.5 4.304 1.314.051-.167.038-.171-4.393-.976Zm1-9.5h4.5v-.199l-.018-.199-4.482.398Zm-5.5-62h-4.5v.199l.018.199 4.482-.398Zm.5-16.5-4.371-1.07-.064.261-.032.268 4.467.541Zm10.5-25.5-3.85-2.33-.094.155-.081.163L320 312.25Zm14.5-22-3.493-2.838-.126.156-.113.167 3.732 2.515Zm13.5-16 3.387 2.963.096-.109.088-.116L348 274.25Zm10-16.5 4.258 1.457.144-.421.059-.441-4.461-.595Zm0-41 4.472-.497-.003-.031-.004-.03-4.465.558Zm-5-18.5 4.288-1.364-.049-.153-.059-.15-4.18 1.667Zm-36-74.5 4.036-1.989-.049-.1-.053-.096L317 123.75Zm-4.5-9 .636-4.455a4.502 4.502 0 0 0-4.748 6.283l4.112-1.828Zm21.5 8 2.258-3.893-.2-.116-.211-.095L334 122.75Zm25 14.5 2.592-3.679-.163-.114-.171-.1L359 137.25Zm22 15.5-2.592 3.679.225.158.242.13L381 152.75Zm14.5 7.25-1.315 4.304.318.097.329.049.668-4.45Zm5.5.5-.187 4.496.292.012.292-.026L401 160.5Zm-3-58.5h-4.5v.132l.008.132L398 102Zm.5-21.25-4.269-1.423-.044.13-.035.134 4.348 1.159Zm4-7-2.7-3.6-.437.328-.346.422 3.483 2.85Zm6.222-2.75v-4.5h-.485l-.473.103.958 4.397ZM420 73.75l2.216-3.917-.189-.107-.199-.088L420 73.75Zm24.5 14.5 3.059-3.3-.246-.229-.278-.189-2.535 3.718ZM486 132l3.355-2.999-.007-.008L486 132Zm38 42.5 3.506-2.822-.074-.09-.077-.087L524 174.5Zm36.5 43-3.152 3.212.163.16.178.142 2.811-3.514Zm13 9.75-2.626 3.654.364.262.41.185 1.852-4.101Zm15.5 7-1.852 4.101.174.079.18.063L589 234.25Zm17 6 2.1-3.98-.291-.154-.311-.109L606 240.25Zm18 9.5 2.929-3.417-.383-.328-.446-.235-2.1 3.98Zm21 18 3.495-2.834-.257-.317-.309-.266L645 267.75Zm15 18.5 3.514-2.811-.009-.012-.01-.011L660 286.25Zm20.359 24.435a4.501 4.501 0 0 0-7.718 4.63l7.718-4.63ZM324 118.25l1.847-4.104-.132-.059-.135-.05-1.58 4.213Zm-8-3 1.58-4.213-.459-.172-.485-.07-.636 4.455Zm-1.5 4-4.112 1.828.081.182.097.175 3.934-2.185ZM479 608.75l4.341 1.184.159-.581v-.603H479Zm-11-27.25 2.416-3.796-.196-.125-.208-.104L468 581.5Zm-16.5-6 1.251-4.323-.126-.036-.128-.029-.997 4.388Zm-5.5-1.25.997-4.388-.272-.062-.277-.028-.448 4.478Zm-8.875 3.875-3.435-2.907-.141.167-.124.179 3.7 2.561Zm5.875-4v-4.5h-.418l-.411.077.829 4.423Zm-4.5 2.375-3.182-3.182-.132.132-.121.143 3.435 2.907Zm-8.125 11.375 3.552 2.763.077-.099.071-.103-3.7-2.561ZM429.5 589l3.307 3.052.128-.139.117-.15L429.5 589Zm-5.375 5.375 2.214 3.918.424-.24.363-.324-3.001-3.354Zm-5.75 3.25 1.64 4.191.297-.117.277-.156-2.214-3.918ZM412 599.25v4.5h.32l.316-.045-.636-4.455Zm-23.75-5.75-2.105 3.977.154.082.16.069 1.791-4.128Zm9.938 4.312-1.792 4.129.276.119.29.082 1.226-4.33ZM405 599.25l-.636 4.455.316.045h.32v-4.5Zm-55.75-29 2.395-3.81-.114-.071-.117-.065-2.164 3.946Zm-13.25-7 2.012-4.025-.286-.143-.303-.101L336 563.25Zm-33.25-18.125-3.951 2.155.162.296.204.269 3.585-2.72Zm6.625 6.5-2.681 3.614.255.189.279.152 2.147-3.955ZM272 513.75l-4.178 1.671.221.553.357.476 3.6-2.7Zm1.5 2-3.6 2.7.192.256.226.226 3.182-3.182Zm-2.5-4.5h-4.5v.867l.322.804L271 511.25Zm3-12.625-4.112-1.828-.119.268-.084.282 4.315 1.278Zm3.469-7.687-3.906-2.236-.102.179-.086.188 4.094 1.869ZM314.5 421.25l4.393.976.107-.482v-.494h-4.5Zm-2.469 9.312 3.906 2.236.251-.438.147-.484-4.304-1.314ZM309 341.875l-4.467-.541-.033.269v.272h4.5Zm1.25-7.187-4.166-1.701-.126.307-.079.323 4.371 1.071Zm6.25-15.313-4.057-1.947-.058.121-.051.125 4.166 1.701Zm6.375-11.875-3.732-2.515-.061.091-.057.094 3.85 2.33ZM318 316.25l-4.025-2.012-.016.032-.016.033L318 316.25Zm23-34-3.387-2.963-.054.062-.052.063L341 282.25Zm12.75-15.5 3.571 2.738.138-.18.12-.193-3.829-2.365Zm2.625-4.25 3.829 2.365.265-.43.164-.478-4.258-1.457ZM359 250.25l4.461.595.039-.296v-.299H359Zm0-24.5h4.5v-.249l-.028-.248-4.472.497Zm-2.5-16.5 4.388-.997-.042-.186-.058-.181-4.288 1.364Zm1.25 5.5 4.465-.558-.027-.222-.05-.217-4.388.997Zm-23.5-56-4.036 1.989.005.012.006.011 4.025-2.012Zm14.812 29.625 4.18-1.667-.07-.176-.085-.169-4.025 2.012ZM402 135l-4.447.691.014.088.017.087L402 135Zm2.5 12.75 4.423-.829-.004-.019-.003-.018-4.416.866Zm1 11.25 3.182 3.182.881-.881.303-1.21L405.5 159Zm-1.675 1.25.396 4.482 1.097-.097.927-.592-2.42-3.793Zm2.175-4.5h4.5v-.418l-.077-.411-4.423.829Zm-7-40.062-4.479.431.012.13.02.129 4.447-.69Zm-.5-5.188-4.492.264.005.084.008.084 4.479-.432Zm.625-31.625-3.859-2.315-.254.423-.156.469 4.269 1.423ZM398 82.625l-4.348-1.16-.152.57v.59h4.5Zm3.375-7.5-3.483-2.85-.207.254-.169.28 3.859 2.316Zm2.625-2.5-1.731-4.154-.519.216-.45.338 2.7 3.6Zm3-1.25-.958-4.397-.397.087-.376.156L407 71.375Zm3-.375.508-4.471-.253-.029H410V71Zm5.5.75 1.828-4.112-.539-.24-.582-.092-.707 4.444Zm-2.75-.438.707-4.444-.099-.015-.1-.012-.508 4.472ZM439 84.5l2.535-3.718-.155-.106-.164-.093L439 84.5Zm25 23 3.348-3.007-.069-.077-.072-.073L464 107.5Zm-8-8.125 3.207-3.157-.007-.007-3.2 3.164Zm-5.5-5.563 3.2-3.163-.069-.07-.072-.066-3.059 3.3ZM406 157l4.366 1.091.134-.537V157H406Zm-1 2.5 2.421 3.793.414-.264.347-.347L405 159.5Zm-7 .875-.668 4.45.239.036.242.01.187-4.496Zm-4.75-1.063-2.125 3.967.389.208.421.129 1.315-4.304ZM472.5 584.75l3.417-2.929-.226-.262-.262-.226-2.929 3.417Zm1.5 1.75 3.744-2.496-.151-.226-.176-.207L474 586.5Zm3 5.75 4.393-.976-.064-.286-.1-.276L477 592.25Zm-6.25-9 2.929-3.417-.243-.208-.27-.171-2.416 3.796ZM465 580l2.012-4.025-.103-.051-.105-.047L465 580Zm-25.5-4.5-2.496-3.744-.371.247-.315.315 3.182 3.182Zm5.25-1.375.448-4.478-.224-.022h-.224v4.5Zm6.312 88.937-3.899-2.245-.038.066-.035.066 3.972 2.113ZM433.5 702l-4.138-1.769-.037.087-.033.088L433.5 702Zm10.5-24.562-4.055-1.951-.044.09-.039.092 4.138 1.769Zm-27.125 73.75-4.352-1.144-.005.016-.004.016 4.361 1.112Zm7.25-24.438-4.208-1.594-.051.133-.041.136 4.3 1.325Zm-17.563 64.906-4.36-1.111-.058.227-.034.233 4.452.651Zm-3.812 27.469 4.482.405.002-.023.002-.023-4.486-.359ZM540.5 195l-3.506 2.822.052.063.053.062L540.5 195Zm9.75 11.25 3.577-2.73-.085-.111-.091-.106-3.401 2.947Zm3.625 4.75-3.577 2.73.195.256.23.226 3.152-3.212Zm11.625 10.5-2.811 3.514.09.072.095.068 2.626-3.654ZM299.662 530.134c-2.42-3.388-6.255-6.727-10.174-9.522-3.973-2.835-8.378-5.353-12.215-6.998l-3.546 8.272c3.163 1.355 7.008 3.537 10.535 6.052 3.581 2.555 6.496 5.216 8.076 7.428l7.324-5.232Zm19.32-114.282-5.5-62-8.964.796 5.5 62 8.964-.796Zm12.76-289.209 25 14.5 4.516-7.786-25-14.5-4.516 7.786Zm24.666 14.286 22 15.5 5.184-7.358-22-15.5-5.184 7.358Zm126.237-5.93 38 42.5 6.71-5.998-38-42.5-6.71 5.998Zm89.003 96.352 15.5 7 3.704-8.202-15.5-7-3.704 8.202Zm15.854 7.142 17 6 2.996-8.486-17-6-2.996 8.486Zm16.398 5.737 18 9.5 4.2-7.96-18-9.5-4.2 7.96Zm17.171 8.937 21 18 5.858-6.834-21-18-5.858 6.834Zm20.434 17.417 15 18.5 6.99-5.668-15-18.5-6.99 5.668Zm14.981 18.477c-.006-.007.02.025.086.116.061.086.141.201.241.347.2.293.453.676.756 1.143a251.42 251.42 0 0 1 2.245 3.549c1.744 2.799 3.874 6.282 5.903 9.62 2.026 3.337 3.945 6.518 5.263 8.71l1.464 2.438.274.459c.024.039 0 0-.024-.042a9.54 9.54 0 0 1-.22-.439c1.926-5.723 7.867-4.297 7.919-4.216a1.043 1.043 0 0 1 .046.073l.004.006-.084-.14-7.718 4.63.097.16.018.031.011.018.037.059c.053.082 5.995 1.508 7.921-4.216a9.566 9.566 0 0 0-.222-.44l-.02-.036-.009-.014-.009-.016-.015-.025-.286-.478a2265.153 2265.153 0 0 0-6.756-11.194 1054.232 1054.232 0 0 0-5.956-9.708c-1.675-2.688-3.228-5.129-3.938-6.017l-7.028 5.622ZM322.153 122.354l10 4.5 3.694-8.208-10-4.5-3.694 8.208Zm-10.289-3.149 3.5.5 1.272-8.91-3.5-.5-1.272 8.91Zm2.556.258 8 3 3.16-8.426-8-3-3.16 8.426Zm6.514 2.102-2.5-4.5-7.868 4.37 2.5 4.5 7.868-4.37Zm-2.322-4.143-2-4.5-8.224 3.656 2 4.5 8.224-3.656Zm161.729 503.512 3-11-8.682-2.368-3 11 8.682 2.368Zm3.159-12.184v-7.5h-9v7.5h9Zm-21.249-34.823-9.5-2.75-2.502 8.646 9.5 2.75 2.502-8.646Zm-9.754-2.815-5.5-1.25-1.994 8.776 5.5 1.25 1.994-8.776Zm-19.072 4.452-3.375 4.875 7.4 5.122 3.375-4.875-7.4-5.122Zm8.746-5.862-2 .375 1.658 8.846 2-.375-1.658-8.846Zm-7.106 3.891-1.375 1.625 6.87 5.814 1.375-1.625-6.87-5.814Zm-5.015 6.846-3.375 4.875 7.4 5.122 3.375-4.875-7.4-5.122Zm-3.227 4.673-.875 1.125 7.104 5.526.875-1.125-7.104-5.526Zm-.63.836-3 3.25 6.614 6.104 3-3.25-6.614-6.104Zm-2.694 2.948-2.375 2.125 6.002 6.708 2.375-2.125-6.002-6.708Zm-1.588 1.561-2.875 1.625 4.428 7.836 2.875-1.625-4.428-7.836Zm-2.875 1.625-2.875 1.625 4.428 7.836 2.875-1.625-4.428-7.836Zm-2.301 1.352-2.875 1.125 3.28 8.382 2.875-1.125-3.28-8.382Zm-1.871.861-3.5.5 1.272 8.91 3.5-.5-1.272-8.91Zm-2.864.455h-3.5v9h3.5v-9Zm-21.645-5.227-12.75-6.75-4.21 7.954 12.75 6.75 4.21-7.954Zm6.311 2.724-6.625-2.875-3.582 8.256 6.625 2.875 3.582-8.256Zm6.059 2.173-3.312-.937-2.451 8.659 3.313.938 2.45-8.66Zm-2.746-.736-3.313-1.437-3.582 8.256 3.312 1.438 3.583-8.257Zm8.521 1.066H405v9h3.5v-9Zm-2.864.045-3.5-.5-1.272 8.91 3.5.5 1.272-8.91Zm-27.741-11.855-17.5-11-4.79 7.62 17.5 11 4.79-7.62Zm-17.5-11-8.75-5.5-4.79 7.62 8.75 5.5 4.79-7.62Zm-8.981-5.636-7.75-4.25-4.328 7.892 7.75 4.25 4.328-7.892Zm-18.491-8.823-9-3-2.846 8.538 9 3 2.846-8.538Zm10.589 4.494-5.5-2.75-4.024 8.05 5.5 2.75 4.024-8.05Zm-6.089-2.994-4.5-1.5-2.846 8.538 4.5 1.5 2.846-8.538Zm-12.776-4.186-8.75-4.75-4.294 7.91 8.75 4.75 4.294-7.91Zm-20.196-15.95-4.5-8.25-7.902 4.31 4.5 8.25 7.902-4.31Zm4.634 7.185-2.75-3.625-7.17 5.44 2.75 3.625 7.17-5.44Zm-2.384-3.06-2.25-4.125-7.902 4.31 2.25 4.125 7.902-4.31Zm9.196 7.075-4.375-2.375-4.294 7.91 4.375 2.375 4.294-7.91Zm-3.841-2.034-3.875-2.875-5.362 7.228 3.875 2.875 5.362-7.228Zm-33.374-33.443-2-2-6.364 6.364 2 2 6.364-6.364Zm-1.582-1.518-1.5-2-7.2 5.4 1.5 2 7.2-5.4Zm-.922-.971-1-2.5-8.356 3.342 1 2.5 8.356-3.342Zm-.678-.829v-2.5h-9v2.5h9Zm13.28-31.014 9.875-17.25-7.81-4.472-9.875 17.25 7.81 4.472Zm-4.937 8.625 4.937-8.625-7.81-4.472-4.938 8.625 7.811 4.472Zm-8.528 21.167 1-3.375-8.63-2.556-1 3.375 8.63 2.556Zm1-3.375 1-3.375-8.63-2.556-1 3.375 8.63 2.556Zm1-3.375 1-3.375-8.63-2.556-1 3.375 8.63 2.556Zm.797-2.825 1.5-3.375-8.224-3.656-1.5 3.375 8.224 3.656Zm1.482-3.334 1.968-4.313-8.187-3.737-1.969 4.312 8.188 3.738Zm1.78-3.946 2.469-4.312-7.811-4.472-2.469 4.313 7.811 4.471Zm17.281-30.187 9.875-17.25-7.81-4.472-9.875 17.25 7.81 4.472Zm9.875-17.25 4.938-8.625-7.811-4.472-4.937 8.625 7.81 4.472Zm9.363-19.01 1-4.5-8.786-1.952-1 4.5 8.786 1.952ZM319 421.25v-5h-9v5h9Zm-5.532 15.861 2.469-4.313-7.811-4.471-2.469 4.312 7.811 4.472Zm2.867-5.235 1.469-4.812-8.608-2.628-1.469 4.813 8.608 2.627ZM313.5 354.25V346h-9v8.25h9Zm2.166-20.924 2.5-6.125-8.332-3.402-2.5 6.125 8.332 3.402ZM313.5 346v-4.125h-9V346h9Zm-.033-3.584.5-4.125-8.934-1.082-.5 4.125 8.934 1.082Zm.404-3.596.75-3.062-8.742-2.141-.75 3.063 8.742 2.14Zm.545-2.432 1.25-3.062-8.332-3.402-1.25 3.063 8.332 3.401Zm3.75-9.187 2.5-6.125-8.332-3.402-2.5 6.125 8.332 3.402Zm12.316-22.936 7.75-11.5-7.464-5.03-7.75 11.5 7.464 5.03Zm-3.875 5.75 3.875-5.75-7.464-5.03-3.875 5.75 7.464 5.03Zm-6.05 11.307 1.5-3.125-8.114-3.894-1.5 3.125 8.114 3.894Zm1.468-3.06 2-4-8.05-4.024-2 4 8.05 4.024Zm1.825-3.682 2.875-4.75-7.7-4.66-2.875 4.75 7.7 4.66Zm14.143-21.492 6.5-8-6.986-5.676-6.5 8 6.986 5.676Zm6.394-7.875 7-8-6.774-5.926-7 8 6.774 5.926Zm7.184-8.225 5.75-7.5-7.142-5.476-5.75 7.5 7.142 5.476Zm6.008-7.873 2.625-4.25-7.658-4.73-2.625 4.25 7.658 4.73Zm3.054-5.158 1.625-4.75-8.516-2.914-1.625 4.75 8.516 2.914Zm1.828-5.612 1-7.5-8.922-1.19-1 7.5 8.922 1.19Zm1.039-8.095v-8.5h-9v8.5h9Zm0-8.5v-10.5h-9v10.5h9Zm0-10.5v-5.5h-9v5.5h9Zm-.028-5.997-1-9-8.944.994 1 9 8.944-.994Zm-2.684-17.367-3.5-11-8.576 2.728 3.5 11 8.576-2.728Zm1.677 8.306-.25-2-8.93 1.116.25 2 8.93-1.116Zm-.327-2.439-1.25-5.5-8.776 1.994 1.25 5.5 8.776-1.994Zm-23.852-56.992-17.25-35-8.072 3.978 17.25 35 8.072-3.978Zm9.864 19.727-9.875-19.75-8.05 4.024 9.875 19.75 8.05-4.024Zm9.03 20.095-3.938-9.875-8.359 3.334 3.937 9.875 8.36-3.334Zm-4.093-10.22-4.937-9.875-8.05 4.024 4.938 9.875 8.049-4.024Zm55.829-39.479-2.5-12.75-8.832 1.732 2.5 12.75 8.832-1.732Zm-7.519 18.098 2.824-.25-.793-8.964-2.825.25.794 8.964Zm9.026-10.061-1.5-8-8.846 1.658 1.5 8 8.846-1.658Zm-3.976-20.612-2-12.875-8.894 1.382 2 12.875 8.894-1.382ZM402.5 98.75v-10.5h-9v10.5h9Zm-9-.25v.25h9v-.25h-9Zm10.947 22.934-1-6.437-8.894 1.381 1 6.438 8.894-1.382Zm-.968-6.178-.5-5.188-8.958.864.5 5.187 8.958-.863ZM402.5 102v-3.5h-9v3.5h9Zm.492 8.236-.5-8.5-8.984.528.5 8.5 8.984-.528ZM402.5 88.25V84.5h-9v3.75h9Zm.269-6.077.625-1.875-8.538-2.846-.625 1.875 8.538 2.846Zm.215-.983 1.125-1.875-7.718-4.63-1.125 1.875 7.718 4.63Zm-.484 3.31v-1.875h-9V84.5h9Zm-.152-.716.5-1.875-8.696-2.319-.5 1.876 8.696 2.319Zm1.761-4.469 1.125-1.875-7.718-4.63-1.125 1.875 7.718 4.63Zm.749-1.34 1.125-1.375-6.966-5.7-1.125 1.375 6.966 5.7Zm.342-.625 1.5-1.125-5.4-7.2-1.5 1.125 5.4 7.2Zm.531-.571 1.5-.625-3.462-8.308-1.5.625 3.462 8.308Zm1.5-.625 1.5-.625-3.462-8.308-1.5.625 3.462 8.308Zm.727-.382 1.721-.375-1.915-8.794-1.722.375 1.916 8.794Zm.764-.272H410v-9h-1.278v9Zm4.95.362 4.5 2 3.656-8.224-4.5-2-3.656 8.224Zm-4.18-.39 2.75.312 1.016-8.943-2.75-.312-1.016 8.942Zm2.551.285 2.75.437 1.414-8.888-2.75-.438-1.414 8.889Zm5.741 1.91 19 10.75 4.432-7.834-19-10.75-4.432 7.834Zm18.681 10.551 5.5 3.75 5.07-7.436-5.5-3.75-5.07 7.436Zm24.187 22.289 22 24.5 6.696-6.014-22-24.5-6.696 6.014Zm-7.859-7.975 8 8.125 6.414-6.314-8-8.125-6.414 6.314ZM441.441 91.55l6 5.563 6.118-6.6-6-5.563-6.118 6.6Zm5.859 5.427 5.5 5.562 6.4-6.328-5.5-5.563-6.4 6.329ZM410.5 157v-1.25h-9V157h9Zm-.634 3.091.25-1-8.732-2.182-.25 1 8.732 2.182Zm.25-1 .25-1-8.732-2.182-.25 1 8.732 2.182Zm-3.871 4.952 1.176-.75-4.842-7.586-1.175.75 4.841 7.586Zm1.937-1.361.5-.5-6.364-6.364-.5.5 6.364 6.364Zm-13.35 1.768 2.5.375 1.336-8.9-2.5-.375-1.336 8.9Zm2.981.421 3 .125.374-8.992-3-.125-.374 8.992Zm-18.938-8.154 7 3.75 4.25-7.934-7-3.75-4.25 7.934Zm7 3.75 3.5 1.875 4.25-7.934-3.5-1.875-4.25 7.934Zm3.5 1.875 1.75.937 4.25-7.933-1.75-.938-4.25 7.934Zm2.56 1.274 2.25.688 2.63-8.608-2.25-.687-2.63 8.607Zm91.458 436.658-1.5-6.75-8.786 1.952 1.5 6.75 8.786-1.952Zm-3.649-13.27-2-3-7.488 4.992 2 3 7.488-4.992Zm-2.327-3.433-1.5-1.75-6.834 5.858 1.5 1.75 6.834-5.858Zm4.476 9.953-.5-2.25-8.786 1.952.5 2.25 8.786-1.952Zm-.664-2.812-1-2.75-8.458 3.076 1 2.75 8.458-3.076Zm-5.8-9.379-1.75-1.5-5.858 6.834 1.75 1.5 5.858-6.834Zm-2.263-1.879-2.75-1.75-4.832 7.592 2.75 1.75 4.832-7.592Zm-3.154-1.979-3-1.5-4.024 8.05 3 1.5 4.024-8.05Zm-3.208-1.598-4-1.75-3.608 8.246 4 1.75 3.608-8.246Zm-28.3-5.121-1.5 1 4.992 7.488 1.5-1-4.992-7.488Zm-2.186 1.562-1 1 6.364 6.364 1-1-6.364-6.364Zm10.13-2.546-1.25-.125-.896 8.956 1.25.125.896-8.956Zm-1.698-.147H443v9h1.75v-9Zm20.9 77.12 14.25-24.75-7.8-4.49-14.25 24.75 7.8 4.49Zm-7.125 12.375 7.125-12.375-7.8-4.49-7.125 12.375 7.8 4.49Zm-5.052 8.993 1.562-2.937-7.945-4.227-1.563 2.938 7.946 4.226Zm1.489-2.805 3.563-6.188-7.8-4.49-3.562 6.187 7.799 4.491Zm-17.324 38.461 7-16.375-8.276-3.538-7 16.375 8.276 3.538Zm7-16.375 3.5-8.188-8.276-3.537-3.5 8.187 8.276 3.538Zm3.417-8.006 5.5-11.438-8.11-3.9-5.5 11.437 8.11 3.901Zm-16.597 40.706 6.25-16.5-8.416-3.188-6.25 16.5 8.416 3.188Zm-10.231 32.237 1.625-6.188-8.704-2.286-1.625 6.187 8.704 2.287Zm1.573-6.006 5.625-18.25-8.6-2.65-5.625 18.25 8.6 2.65Zm5.533-17.981 3.125-8.25-8.416-3.188-3.125 8.25 8.416 3.188Zm-11.222 40.142 2.062-8.094-8.721-2.222-2.063 8.094 8.722 2.222Zm2.062-8.094 2.063-8.093-8.722-2.223-2.062 8.094 8.721 2.222Zm-6.187 24.282 4.125-16.188-8.722-2.222-4.125 16.187 8.722 2.223Zm-5.533 31.978 3.562-24.344-8.905-1.303-3.563 24.343 8.906 1.304Zm3.47-23.885 2.063-8.093-8.722-2.223-2.062 8.094 8.721 2.222Zm-8.941 84.888 3.5-38.75-8.964-.81-3.5 38.75 8.964.81Zm3.5-38.75 1.75-19.375-8.964-.81-1.75 19.375 8.964.81Zm1.754-19.421.25-3.125-8.972-.718-.25 3.125 8.972.718Zm113.258-642.162 16.5 20.5 7.012-5.644-16.5-20.5-7.012 5.644Zm16.605 20.625 9.75 11.25 6.802-5.894-9.75-11.25-6.802 5.894Zm9.574 11.033 3.625 4.75 7.154-5.46-3.625-4.75-7.154 5.46Zm4.05 5.232 6.625 6.5 6.304-6.424-6.625-6.5-6.304 6.424Zm6.966 6.802 5 4 5.622-7.028-5-4-5.622 7.028Zm5.185 4.14 8 5.75 5.252-7.308-8-5.75-5.252 7.308Z" fill="#fff"/><path d="M307.606 618.553a1 1 0 1 0 1.788.894l-1.788-.894ZM322.5 591.5l.888.46c.011-.021.021-.044.031-.066l-.919-.394Zm-7 13.5-.888-.46-.003.006-.003.007.894.447Zm13-27.5.919.394.025-.058.018-.061-.962-.275Zm1.5-5.25-.921-.391-.024.057-.017.059.962.275Zm-6.581 19.644 6-14-1.838-.788-6 14 1.838.788Zm-7.031 13.566 3.5-6.75-1.776-.92-3.5 6.75 1.776.92Zm3.5-6.75 3.5-6.75-1.776-.92-3.5 6.75 1.776.92Zm-6.994 13.737 3.5-7-1.788-.894-3.5 7 1.788.894Zm-1.75 3.5 1.75-3.5-1.788-.894-1.75 3.5 1.788.894Zm-1.75 3.5.875-1.75-1.788-.894-.875 1.75 1.788.894Zm.875-1.75.875-1.75-1.788-.894-.875 1.75 1.788.894Zm20.652-45.056 3.5-8.25-1.842-.782-3.5 8.25 1.842.782Zm-1.459 5.134 1.5-5.25-1.924-.55-1.5 5.25 1.924.55Zm4.715-13.343-5 7.25 1.646 1.136 5-7.25-1.646-1.136Zm-3.354 8.386 1.25-1.813-1.646-1.135-1.25 1.812 1.646 1.136Zm1.25-1.813 3.75-5.437-1.646-1.136-3.75 5.438 1.646 1.135Z" fill="#fff"/><path d="m340 613.5.312-1.312.313-1.313.313-1.313.312-1.312.625-2.625.625-2.625v-34.5m0 0-1.5-1 1 4.5-.5-4 1 8v-7.5Z" stroke="#fff" stroke-linecap="round" stroke-linejoin="round"/></svg>