<svg xmlns="http://www.w3.org/2000/svg" width="250" height="160" fill="none"><g clip-path="url(#a)"><path stroke="#fff" stroke-opacity=".06" stroke-width=".238" d="M0 0h11.905v11.905H0zM11.905 0H23.81v11.905H11.905z"/><path stroke="#fff" stroke-opacity=".06" stroke-width=".238" d="M23.809 0h11.905v11.905H23.809zM35.714 0h11.905v11.905H35.714zM47.619 0h11.905v11.905H47.619zM59.524 0h11.905v11.905H59.524zM71.429 0h11.905v11.905H71.429z"/><path stroke="#fff" stroke-opacity=".06" stroke-width=".238" d="M83.333 0h11.905v11.905H83.333zM95.238 0h11.905v11.905H95.238zM107.143 0h11.905v11.905h-11.905zM119.048 0h11.905v11.905h-11.905z"/><path stroke="#fff" stroke-opacity=".06" stroke-width=".238" d="M130.952 0h11.905v11.905h-11.905zM142.857 0h11.905v11.905h-11.905zM154.762 0h11.905v11.905h-11.905zM166.667 0h11.905v11.905h-11.905z"/><path stroke="#fff" stroke-opacity=".06" stroke-width=".238" d="M178.571 0h11.905v11.905h-11.905zM190.476 0h11.905v11.905h-11.905zM202.381 0h11.905v11.905h-11.905zM214.286 0h11.905v11.905h-11.905z"/><path stroke="#fff" stroke-opacity=".06" stroke-width=".238" d="M226.19 0h11.905v11.905H226.19zM238.095 0H250v11.905h-11.905zM0 11.905h11.905V23.81H0zM11.905 11.905H23.81V23.81H11.905z"/><path fill="#fff" fill-opacity=".05" stroke="#fff" stroke-opacity=".06" stroke-width=".238" d="M23.809 11.905h11.905V23.81H23.809z"/><path stroke="#fff" stroke-opacity=".06" stroke-width=".238" d="M35.714 11.905h11.905V23.81H35.714zM47.619 11.905h11.905V23.81H47.619zM59.524 11.905h11.905V23.81H59.524zM71.429 11.905h11.905V23.81H71.429z"/><path stroke="#fff" stroke-opacity=".06" stroke-width=".238" d="M83.333 11.905h11.905V23.81H83.333zM95.238 11.905h11.905V23.81H95.238z"/><path fill="#fff" fill-opacity=".05" stroke="#fff" stroke-opacity=".06" stroke-width=".238" d="M107.143 11.905h11.905V23.81h-11.905z"/><path stroke="#fff" stroke-opacity=".06" stroke-width=".238" d="M119.048 11.905h11.905V23.81h-11.905z"/><path stroke="#fff" stroke-opacity=".06" stroke-width=".238" d="M130.952 11.905h11.905V23.81h-11.905zM142.857 11.905h11.905V23.81h-11.905zM154.762 11.905h11.905V23.81h-11.905zM166.667 11.905h11.905V23.81h-11.905z"/><path stroke="#fff" stroke-opacity=".06" stroke-width=".238" d="M178.571 11.905h11.905V23.81h-11.905zM190.476 11.905h11.905V23.81h-11.905zM202.381 11.905h11.905V23.81h-11.905zM214.286 11.905h11.905V23.81h-11.905z"/><path stroke="#fff" stroke-opacity=".06" stroke-width=".238" d="M226.19 11.905h11.905V23.81H226.19zM238.095 11.905H250V23.81h-11.905zM0 23.81h11.905v11.905H0zM11.905 23.81H23.81v11.905H11.905z"/><path stroke="#fff" stroke-opacity=".06" stroke-width=".238" d="M23.809 23.81h11.905v11.905H23.809zM35.714 23.81h11.905v11.905H35.714zM47.619 23.81h11.905v11.905H47.619zM59.524 23.81h11.905v11.905H59.524zM71.429 23.81h11.905v11.905H71.429z"/><path stroke="#fff" stroke-opacity=".06" stroke-width=".238" d="M83.333 23.81h11.905v11.905H83.333zM95.238 23.81h11.905v11.905H95.238zM107.143 23.81h11.905v11.905h-11.905zM119.048 23.81h11.905v11.905h-11.905z"/><path stroke="#fff" stroke-opacity=".06" stroke-width=".238" d="M130.952 23.81h11.905v11.905h-11.905zM142.857 23.81h11.905v11.905h-11.905zM154.762 23.81h11.905v11.905h-11.905zM166.667 23.81h11.905v11.905h-11.905z"/><path stroke="#fff" stroke-opacity=".06" stroke-width=".238" d="M178.571 23.81h11.905v11.905h-11.905z"/><path fill="#fff" fill-opacity=".05" stroke="#fff" stroke-opacity=".06" stroke-width=".238" d="M190.476 23.81h11.905v11.905h-11.905z"/><path stroke="#fff" stroke-opacity=".06" stroke-width=".238" d="M202.381 23.81h11.905v11.905h-11.905zM214.286 23.81h11.905v11.905h-11.905z"/><path stroke="#fff" stroke-opacity=".06" stroke-width=".238" d="M226.19 23.81h11.905v11.905H226.19zM238.095 23.81H250v11.905h-11.905zM0 35.714h11.905v11.905H0zM11.905 35.714H23.81v11.905H11.905z"/><path stroke="#fff" stroke-opacity=".06" stroke-width=".238" d="M23.809 35.714h11.905v11.905H23.809zM35.714 35.714h11.905v11.905H35.714zM47.619 35.714h11.905v11.905H47.619zM59.524 35.714h11.905v11.905H59.524zM71.429 35.714h11.905v11.905H71.429z"/><path stroke="#fff" stroke-opacity=".06" stroke-width=".238" d="M83.333 35.714h11.905v11.905H83.333zM95.238 35.714h11.905v11.905H95.238zM107.143 35.714h11.905v11.905h-11.905zM119.048 35.714h11.905v11.905h-11.905z"/><path stroke="#fff" stroke-opacity=".06" stroke-width=".238" d="M130.952 35.714h11.905v11.905h-11.905zM142.857 35.714h11.905v11.905h-11.905zM154.762 35.714h11.905v11.905h-11.905zM166.667 35.714h11.905v11.905h-11.905z"/><path stroke="#fff" stroke-opacity=".06" stroke-width=".238" d="M178.571 35.714h11.905v11.905h-11.905zM190.476 35.714h11.905v11.905h-11.905zM202.381 35.714h11.905v11.905h-11.905zM214.286 35.714h11.905v11.905h-11.905z"/><path stroke="#fff" stroke-opacity=".06" stroke-width=".238" d="M226.19 35.714h11.905v11.905H226.19zM238.095 35.714H250v11.905h-11.905zM0 47.619h11.905v11.905H0zM11.905 47.619H23.81v11.905H11.905z"/><path stroke="#fff" stroke-opacity=".06" stroke-width=".238" d="M23.809 47.619h11.905v11.905H23.809z"/><path fill="#fff" fill-opacity=".05" stroke="#fff" stroke-opacity=".06" stroke-width=".238" d="M35.714 47.619h11.905v11.905H35.714z"/><path stroke="#fff" stroke-opacity=".06" stroke-width=".238" d="M47.619 47.619h11.905v11.905H47.619zM59.524 47.619h11.905v11.905H59.524zM71.429 47.619h11.905v11.905H71.429z"/><path stroke="#fff" stroke-opacity=".06" stroke-width=".238" d="M83.333 47.619h11.905v11.905H83.333zM95.238 47.619h11.905v11.905H95.238zM107.143 47.619h11.905v11.905h-11.905zM119.048 47.619h11.905v11.905h-11.905z"/><path stroke="#fff" stroke-opacity=".06" stroke-width=".238" d="M130.952 47.619h11.905v11.905h-11.905z"/><path fill="#fff" fill-opacity=".05" stroke="#fff" stroke-opacity=".06" stroke-width=".238" d="M142.857 47.619h11.905v11.905h-11.905z"/><path stroke="#fff" stroke-opacity=".06" stroke-width=".238" d="M154.762 47.619h11.905v11.905h-11.905zM166.667 47.619h11.905v11.905h-11.905z"/><path stroke="#fff" stroke-opacity=".06" stroke-width=".238" d="M178.571 47.619h11.905v11.905h-11.905zM190.476 47.619h11.905v11.905h-11.905zM202.381 47.619h11.905v11.905h-11.905zM214.286 47.619h11.905v11.905h-11.905z"/><path stroke="#fff" stroke-opacity=".06" stroke-width=".238" d="M226.19 47.619h11.905v11.905H226.19zM238.095 47.619H250v11.905h-11.905zM0 59.524h11.905v11.905H0zM11.905 59.524H23.81v11.905H11.905z"/><path stroke="#fff" stroke-opacity=".06" stroke-width=".238" d="M23.809 59.524h11.905v11.905H23.809zM35.714 59.524h11.905v11.905H35.714zM47.619 59.524h11.905v11.905H47.619zM59.524 59.524h11.905v11.905H59.524zM71.429 59.524h11.905v11.905H71.429z"/><path stroke="#fff" stroke-opacity=".06" stroke-width=".238" d="M83.333 59.524h11.905v11.905H83.333zM95.238 59.524h11.905v11.905H95.238zM107.143 59.524h11.905v11.905h-11.905zM119.048 59.524h11.905v11.905h-11.905z"/><path stroke="#fff" stroke-opacity=".06" stroke-width=".238" d="M130.952 59.524h11.905v11.905h-11.905zM142.857 59.524h11.905v11.905h-11.905zM154.762 59.524h11.905v11.905h-11.905zM166.667 59.524h11.905v11.905h-11.905z"/><path stroke="#fff" stroke-opacity=".06" stroke-width=".238" d="M178.571 59.524h11.905v11.905h-11.905zM190.476 59.524h11.905v11.905h-11.905zM202.381 59.524h11.905v11.905h-11.905z"/><path fill="#fff" fill-opacity=".05" stroke="#fff" stroke-opacity=".06" stroke-width=".238" d="M214.286 59.524h11.905v11.905h-11.905z"/><path stroke="#fff" stroke-opacity=".06" stroke-width=".238" d="M226.19 59.524h11.905v11.905H226.19zM238.095 59.524H250v11.905h-11.905zM0 71.429h11.905v11.905H0zM11.905 71.429H23.81v11.905H11.905z"/><path stroke="#fff" stroke-opacity=".06" stroke-width=".238" d="M23.809 71.429h11.905v11.905H23.809zM35.714 71.429h11.905v11.905H35.714zM47.619 71.429h11.905v11.905H47.619zM59.524 71.429h11.905v11.905H59.524zM71.429 71.429h11.905v11.905H71.429z"/><path stroke="#fff" stroke-opacity=".06" stroke-width=".238" d="M83.333 71.429h11.905v11.905H83.333zM95.238 71.429h11.905v11.905H95.238zM107.143 71.429h11.905v11.905h-11.905zM119.048 71.429h11.905v11.905h-11.905z"/><path stroke="#fff" stroke-opacity=".06" stroke-width=".238" d="M130.952 71.429h11.905v11.905h-11.905zM142.857 71.429h11.905v11.905h-11.905zM154.762 71.429h11.905v11.905h-11.905zM166.667 71.429h11.905v11.905h-11.905z"/><path stroke="#fff" stroke-opacity=".06" stroke-width=".238" d="M178.571 71.429h11.905v11.905h-11.905zM190.476 71.429h11.905v11.905h-11.905zM202.381 71.429h11.905v11.905h-11.905zM214.286 71.429h11.905v11.905h-11.905z"/><path stroke="#fff" stroke-opacity=".06" stroke-width=".238" d="M226.19 71.429h11.905v11.905H226.19zM238.095 71.429H250v11.905h-11.905zM0 83.333h11.905v11.905H0zM11.905 83.333H23.81v11.905H11.905z"/><path stroke="#fff" stroke-opacity=".06" stroke-width=".238" d="M23.809 83.333h11.905v11.905H23.809zM35.714 83.333h11.905v11.905H35.714zM47.619 83.333h11.905v11.905H47.619zM59.524 83.333h11.905v11.905H59.524zM71.429 83.333h11.905v11.905H71.429z"/><path stroke="#fff" stroke-opacity=".06" stroke-width=".238" d="M83.333 83.333h11.905v11.905H83.333z"/><path fill="#fff" fill-opacity=".05" stroke="#fff" stroke-opacity=".06" stroke-width=".238" d="M95.238 83.333h11.905v11.905H95.238z"/><path stroke="#fff" stroke-opacity=".06" stroke-width=".238" d="M107.143 83.333h11.905v11.905h-11.905zM119.048 83.333h11.905v11.905h-11.905z"/><path stroke="#fff" stroke-opacity=".06" stroke-width=".238" d="M130.952 83.333h11.905v11.905h-11.905zM142.857 83.333h11.905v11.905h-11.905zM154.762 83.333h11.905v11.905h-11.905zM166.667 83.333h11.905v11.905h-11.905z"/><path stroke="#fff" stroke-opacity=".06" stroke-width=".238" d="M178.571 83.333h11.905v11.905h-11.905zM190.476 83.333h11.905v11.905h-11.905zM202.381 83.333h11.905v11.905h-11.905zM214.286 83.333h11.905v11.905h-11.905z"/><path stroke="#fff" stroke-opacity=".06" stroke-width=".238" d="M226.19 83.333h11.905v11.905H226.19zM238.095 83.333H250v11.905h-11.905zM0 95.238h11.905v11.905H0zM11.905 95.238H23.81v11.905H11.905z"/><path stroke="#fff" stroke-opacity=".06" stroke-width=".238" d="M23.809 95.238h11.905v11.905H23.809zM35.714 95.238h11.905v11.905H35.714z"/><path fill="#fff" fill-opacity=".05" stroke="#fff" stroke-opacity=".06" stroke-width=".238" d="M47.619 95.238h11.905v11.905H47.619z"/><path stroke="#fff" stroke-opacity=".06" stroke-width=".238" d="M59.524 95.238h11.905v11.905H59.524zM71.429 95.238h11.905v11.905H71.429z"/><path stroke="#fff" stroke-opacity=".06" stroke-width=".238" d="M83.333 95.238h11.905v11.905H83.333zM95.238 95.238h11.905v11.905H95.238zM107.143 95.238h11.905v11.905h-11.905zM119.048 95.238h11.905v11.905h-11.905z"/><path stroke="#fff" stroke-opacity=".06" stroke-width=".238" d="M130.952 95.238h11.905v11.905h-11.905zM142.857 95.238h11.905v11.905h-11.905zM154.762 95.238h11.905v11.905h-11.905zM166.667 95.238h11.905v11.905h-11.905z"/><path stroke="#fff" stroke-opacity=".06" stroke-width=".238" d="M178.571 95.238h11.905v11.905h-11.905zM190.476 95.238h11.905v11.905h-11.905zM202.381 95.238h11.905v11.905h-11.905zM214.286 95.238h11.905v11.905h-11.905z"/><path stroke="#fff" stroke-opacity=".06" stroke-width=".238" d="M226.19 95.238h11.905v11.905H226.19zM238.095 95.238H250v11.905h-11.905zM0 107.143h11.905v11.905H0zM11.905 107.143H23.81v11.905H11.905z"/><path stroke="#fff" stroke-opacity=".06" stroke-width=".238" d="M23.809 107.143h11.905v11.905H23.809zM35.714 107.143h11.905v11.905H35.714zM47.619 107.143h11.905v11.905H47.619zM59.524 107.143h11.905v11.905H59.524zM71.429 107.143h11.905v11.905H71.429z"/><path stroke="#fff" stroke-opacity=".06" stroke-width=".238" d="M83.333 107.143h11.905v11.905H83.333zM95.238 107.143h11.905v11.905H95.238zM107.143 107.143h11.905v11.905h-11.905zM119.048 107.143h11.905v11.905h-11.905z"/><path stroke="#fff" stroke-opacity=".06" stroke-width=".238" d="M130.952 107.143h11.905v11.905h-11.905zM142.857 107.143h11.905v11.905h-11.905zM154.762 107.143h11.905v11.905h-11.905zM166.667 107.143h11.905v11.905h-11.905z"/><path stroke="#fff" stroke-opacity=".06" stroke-width=".238" d="M178.571 107.143h11.905v11.905h-11.905zM190.476 107.143h11.905v11.905h-11.905zM202.381 107.143h11.905v11.905h-11.905zM214.286 107.143h11.905v11.905h-11.905z"/><path stroke="#fff" stroke-opacity=".06" stroke-width=".238" d="M226.19 107.143h11.905v11.905H226.19zM238.095 107.143H250v11.905h-11.905zM0 119.048h11.905v11.905H0zM11.905 119.048H23.81v11.905H11.905z"/><path stroke="#fff" stroke-opacity=".06" stroke-width=".238" d="M23.809 119.048h11.905v11.905H23.809zM35.714 119.048h11.905v11.905H35.714zM47.619 119.048h11.905v11.905H47.619zM59.524 119.048h11.905v11.905H59.524zM71.429 119.048h11.905v11.905H71.429z"/><path stroke="#fff" stroke-opacity=".06" stroke-width=".238" d="M83.333 119.048h11.905v11.905H83.333zM95.238 119.048h11.905v11.905H95.238zM107.143 119.048h11.905v11.905h-11.905zM119.048 119.048h11.905v11.905h-11.905z"/><path stroke="#fff" stroke-opacity=".06" stroke-width=".238" d="M130.952 119.048h11.905v11.905h-11.905zM142.857 119.048h11.905v11.905h-11.905zM154.762 119.048h11.905v11.905h-11.905zM166.667 119.048h11.905v11.905h-11.905z"/><path stroke="#fff" stroke-opacity=".06" stroke-width=".238" d="M178.571 119.048h11.905v11.905h-11.905zM190.476 119.048h11.905v11.905h-11.905zM202.381 119.048h11.905v11.905h-11.905zM214.286 119.048h11.905v11.905h-11.905z"/><path stroke="#fff" stroke-opacity=".06" stroke-width=".238" d="M226.19 119.048h11.905v11.905H226.19zM238.095 119.048H250v11.905h-11.905zM0 130.952h11.905v11.905H0zM11.905 130.952H23.81v11.905H11.905z"/><path stroke="#fff" stroke-opacity=".06" stroke-width=".238" d="M23.809 130.952h11.905v11.905H23.809zM35.714 130.952h11.905v11.905H35.714zM47.619 130.952h11.905v11.905H47.619zM59.524 130.952h11.905v11.905H59.524zM71.429 130.952h11.905v11.905H71.429z"/><path stroke="#fff" stroke-opacity=".06" stroke-width=".238" d="M83.333 130.952h11.905v11.905H83.333zM95.238 130.952h11.905v11.905H95.238zM107.143 130.952h11.905v11.905h-11.905zM119.048 130.952h11.905v11.905h-11.905z"/><path stroke="#fff" stroke-opacity=".06" stroke-width=".238" d="M130.952 130.952h11.905v11.905h-11.905zM142.857 130.952h11.905v11.905h-11.905zM154.762 130.952h11.905v11.905h-11.905zM166.667 130.952h11.905v11.905h-11.905z"/><path stroke="#fff" stroke-opacity=".06" stroke-width=".238" d="M178.571 130.952h11.905v11.905h-11.905zM190.476 130.952h11.905v11.905h-11.905zM202.381 130.952h11.905v11.905h-11.905zM214.286 130.952h11.905v11.905h-11.905z"/><path stroke="#fff" stroke-opacity=".06" stroke-width=".238" d="M226.19 130.952h11.905v11.905H226.19zM238.095 130.952H250v11.905h-11.905zM0 142.857h11.905v11.905H0zM11.905 142.857H23.81v11.905H11.905z"/><path stroke="#fff" stroke-opacity=".06" stroke-width=".238" d="M23.809 142.857h11.905v11.905H23.809zM35.714 142.857h11.905v11.905H35.714zM47.619 142.857h11.905v11.905H47.619zM59.524 142.857h11.905v11.905H59.524zM71.429 142.857h11.905v11.905H71.429z"/><path stroke="#fff" stroke-opacity=".06" stroke-width=".238" d="M83.333 142.857h11.905v11.905H83.333zM95.238 142.857h11.905v11.905H95.238zM107.143 142.857h11.905v11.905h-11.905zM119.048 142.857h11.905v11.905h-11.905z"/><path stroke="#fff" stroke-opacity=".06" stroke-width=".238" d="M130.952 142.857h11.905v11.905h-11.905zM142.857 142.857h11.905v11.905h-11.905zM154.762 142.857h11.905v11.905h-11.905zM166.667 142.857h11.905v11.905h-11.905z"/><path stroke="#fff" stroke-opacity=".06" stroke-width=".238" d="M178.571 142.857h11.905v11.905h-11.905zM190.476 142.857h11.905v11.905h-11.905zM202.381 142.857h11.905v11.905h-11.905zM214.286 142.857h11.905v11.905h-11.905z"/><path stroke="#fff" stroke-opacity=".06" stroke-width=".238" d="M226.19 142.857h11.905v11.905H226.19zM238.095 142.857H250v11.905h-11.905z"/><g filter="url(#b)"><path fill="url(#c)" d="M-20.238-167.877h301.905V69.908H-20.238z"/></g><path fill="url(#d)" stroke="#0A101F" stroke-width=".238" d="M-53.691-55.75H289.88v215.869H-53.691z"/></g><defs><radialGradient id="c" cx="0" cy="0" r="1" gradientTransform="matrix(0 118.892 -150.952 0 130.714 -48.985)" gradientUnits="userSpaceOnUse"><stop offset=".016" stop-color="#4D76F4" stop-opacity=".69"/><stop offset=".224" stop-color="#4D76F4" stop-opacity=".34"/><stop offset=".911" stop-color="#4D76F4" stop-opacity="0"/></radialGradient><radialGradient id="d" cx="0" cy="0" r="1" gradientTransform="matrix(0 107.815 -171.667 0 118.095 52.185)" gradientUnits="userSpaceOnUse"><stop stop-color="#0A101F" stop-opacity="0"/><stop offset=".833" stop-color="#000309"/></radialGradient><clipPath id="a"><path fill="#fff" d="M0 0h250v160H0z"/></clipPath><filter id="b" width="444.762" height="380.642" x="-91.667" y="-239.306" color-interpolation-filters="sRGB" filterUnits="userSpaceOnUse"><feFlood flood-opacity="0" result="BackgroundImageFix"/><feBlend in="SourceGraphic" in2="BackgroundImageFix" result="shape"/><feGaussianBlur result="effect1_foregroundBlur_109_84" stdDeviation="35.714"/></filter></defs></svg>