<svg width="1706" height="1954" fill="none" xmlns="http://www.w3.org/2000/svg"><g clip-path="url(#a)"><path d="M142.85 1749.3 0 3.278l1706 3.508L1554.95 1749.3l-695.511 201.42L142.85 1749.3Z" fill="#1B73BA"/><path d="M859.438 1782.09V169.566l702.542 2.34L1436.7 1614.64l-577.262 167.45Z" fill="#1C88C7"/><path d="M1387.51 375.677H306.777l29.278 210.775H848.9l-504.646 216.65 29.264 203.758h743.522l-26.93 284.55-251.749 49.2-228.315-58.55-17.569-161.61h-209.59l28.094 336.1 449.627 125.3 430.902-137.01 55.03-656.97H891.041L1387.5 581.773l.01-206.096Z" fill="#fff"/></g><defs><clipPath id="a"><path fill="#fff" d="M0 0h1706v1954H0z"/></clipPath></defs></svg>