<svg width="1954" height="1954" fill="none" xmlns="http://www.w3.org/2000/svg"><g clip-path="url(#a)"><path d="M0 0h1954v1954H0V0Z" fill="#F0DB4F"/><path d="M1794.08 1487.97c-14.31-89.15-72.44-164.01-244.62-233.84-59.81-27.49-126.49-47.18-146.37-92.5-7.06-26.38-7.99-41.24-3.53-57.21 12.82-51.82 74.67-67.98 123.71-53.12 31.57 10.58 61.48 34.92 79.49 73.74 84.33-54.61 84.14-54.24 143.02-91.76-21.54-33.432-33.06-48.85-47.17-63.151-50.71-56.651-119.81-85.812-230.32-83.583-19.14 2.414-38.45 5.013-57.58 7.429-55.17 13.931-107.73 42.907-138.57 81.727-92.5 104.948-66.12 288.638 46.44 364.238 110.89 83.21 273.78 102.16 294.58 179.98 20.25 95.29-70.02 126.12-159.73 115.16-66.13-13.74-102.9-47.36-142.65-108.47-73.18 42.35-73.18 42.35-148.41 85.63 17.83 39 36.59 56.65 66.5 90.45 141.53 143.58 495.74 136.52 559.26-80.79 2.6-7.44 19.69-57.21 5.95-133.93Zm-731.82-589.91H879.486c0 157.88-.741 314.65-.741 472.53 0 100.48 5.201 192.61-11.145 220.84-26.747 55.54-96.028 48.67-127.604 37.89-32.133-15.79-48.479-38.26-67.424-70.02-5.201-9.1-9.102-16.16-10.404-16.72-49.591 30.28-99 60.74-148.593 91.02 24.706 50.7 61.109 94.72 107.73 123.33 69.653 41.79 163.267 54.6 261.155 32.13 63.709-18.57 118.69-57.02 147.48-115.53 41.6-76.71 32.69-169.58 32.32-272.3.92-167.54 0-335.07 0-503.17Z" fill="#323330"/></g><defs><clipPath id="a"><path fill="#fff" d="M0 0h1954v1954H0z"/></clipPath></defs></svg>